<?xml version="1.0" encoding="utf-8"?>
<!-- Generator: Adobe Illustrator 25.4.1, SVG Export Plug-In . SVG Version: 6.00 Build 0)  -->
<svg version="1.1" id="レイヤー_1" xmlns="http://www.w3.org/2000/svg" xmlns:xlink="http://www.w3.org/1999/xlink" x="0px"
	 y="0px" viewBox="0 0 50 50" style="enable-background:new 0 0 50 50;" xml:space="preserve">
<style type="text/css">
	.st0{fill:#1E1E24;}
</style>
<path class="st0" d="M42.8,15.6c-1.2,0.5-2.6,0.9-4,1.1c1.4-0.9,2.5-2.2,3-3.8c-1.3,0.8-2.8,1.4-4.4,1.7c-1.3-1.3-3.1-2.2-5-2.2
	c-3.8,0-6.9,3.1-6.9,6.9c0,0.5,0,1.1,0.2,1.6c-5.7-0.3-10.8-3-14.2-7.2c-0.6,1-0.9,2.2-0.9,3.5c0,2.4,1.2,4.5,3.1,5.7
	c-1.1,0-2.2-0.3-3.1-0.8c0,0,0,0,0,0.1c0,3.3,2.4,6.1,5.5,6.8c-0.6,0.2-1.2,0.2-1.8,0.2c-0.4,0-0.9,0-1.3-0.1
	c0.9,2.7,3.4,4.7,6.4,4.8c-2.3,1.8-5.3,2.9-8.5,2.9c-0.6,0-1.1,0-1.6-0.1c3,2,6.7,3.1,10.6,3.1c12.7,0,19.6-10.5,19.6-19.6
	c0-0.3,0-0.6,0-0.9C40.7,18.2,41.8,17,42.8,15.6z"/>
</svg>
