<?xml version="1.0" encoding="utf-8"?>
<!-- Generator: Adobe Illustrator 25.4.1, SVG Export Plug-In . SVG Version: 6.00 Build 0)  -->
<svg version="1.1" id="レイヤー_1" xmlns="http://www.w3.org/2000/svg" xmlns:xlink="http://www.w3.org/1999/xlink" x="0px"
	 y="0px" viewBox="0 0 1225 1225" style="enable-background:new 0 0 1225 1225;" xml:space="preserve">
<g id="グループ_8" transform="translate(37.008 0)">
	<g id="グループ_6">
		<g id="グループ_5">
			<path id="パス_7" d="M730.9,1224.3h213.5V702.6l-73.5-70V377.1h-182v77l-122.5-112L212.7,702.6v521.6h231.1l-42-63h-126V730.6
				l290.6-301.1l189,171.5v-161h52.5v220.6l73.5,70v430.6H772.9L730.9,1224.3z"/>
			<path id="パス_8" d="M233.7,468.1c0-185.5,150.5-336.1,339.6-336.1c185.5,0,336.1,150.5,339.6,336.1c0,38.5-7,80.5-21,115.5
				l24.5,24.5c17.5-45.5,28-94.5,28-143.5c0-203-164.5-371.1-371.1-371.1c-203,0-371.1,164.5-371.1,371.1c0,49,10.5,98,28,143.5
				l24.5-24.5C240.7,545.1,233.7,506.6,233.7,468.1"/>
			<path id="パス_9" d="M146.2,468.1c0-234.6,189-427.1,427.1-427.1c234.6,0,423.6,189,427.1,427.1c0,63-14,126-42,185.5
				l24.5,24.5c31.5-63,49-136.5,49-206.5C1028.4,216,825.4,9.5,573.3,9.5C317.8,9.5,114.7,216,114.7,468.1
				c0,73.5,17.5,143.5,49,206.5l24.5-24.5C160.2,594.1,146.2,531.1,146.2,468.1"/>
			<path id="パス_10" d="M573.3,195c-150.5,0-273.1,122.5-273.1,273.1c0,21,3.5,45.5,7,66.5l28-28c-3.5-14-3.5-24.5-3.5-38.5
				c0-133,108.5-241.6,241.6-241.6c84,0,164.5,45.5,206.5,119h38.5C769.4,251,674.8,195,573.3,195"/>
		</g>
	</g>
	<g id="グループ_7" transform="translate(9.29 20.701)">
		<path id="パス_11" d="M483.2,1053.1c0,28,10.5,52.5,31.5,73.5c17.5,14,38.5,24.5,63,21c42,3.5,77-24.5,80.5-66.5
			c0-3.5,0-7,0-10.5c0-56-35-73.5-91-91c-31.5-7-63-21-91-42c-24.5-24.5-35-56-35-91c-3.5-70,52.5-129.5,122.5-133c3.5,0,3.5,0,7,0
			c59.5,0,122.5,38.5,136.5,136.5h-56c-7-42-42-77-84-77c-38.5-3.5-70,28-73.5,66.5v3.5c0,45.5,31.5,56,98,73.5
			c45.5,14,122.5,38.5,122.5,147c3.5,73.5-49,136.5-122.5,140c-3.5,0-10.5,0-14,0c-45.5,3.5-91-21-119-59.5c-17.5-28-28-63-28-98
			L483.2,1053.1z"/>
	</g>
</g>
</svg>
