<?xml version="1.0" encoding="utf-8"?>
<!-- Generator: Adobe Illustrator 25.4.1, SVG Export Plug-In . SVG Version: 6.00 Build 0)  -->
<svg version="1.1" id="レイヤー_1" xmlns="http://www.w3.org/2000/svg" xmlns:xlink="http://www.w3.org/1999/xlink" x="0px"
	 y="0px" viewBox="0 0 1920 1080" style="enable-background:new 0 0 1920 1080;" xml:space="preserve">
<style type="text/css">
	.st0{fill:#DEE1E6;}
	.st1{fill-rule:evenodd;clip-rule:evenodd;fill:#FFFFFF;stroke:#231815;stroke-width:0.5;}
	.st2{fill:#FFFFFF;}
	.st3{fill:#231815;}
</style>
<rect y="0.6" class="st0" width="1920" height="1084.4"/>
<path class="st0" d="M715.6-638.7c0,0,22.4-33.5,32-59c9.6-25.6,8.3-28.7,47.8-43.9c25.6-9.9,85.7-41.9,85.7-41.9l12.1,48.5
	l12.7,28.7l70.1,52.8c0,0,6.4,70.5,0,96c-6.4,25.6-16.6,45.2-13.3,61.1c3.2,15.9,22.8,37.5,22.8,37.5l30.1,43.3
	c0,0-3.6,65.9-11.4,85.3c-5.3,13.3-21.3,58.6-2,80.8c15.1,17.5,38,38.9,40.9,50c2.9,11.2,28.9,7,28.9,7l79.3,41.5
	c0,0-85.7,12.9-98.6,16.2c-12.9,3.3-38.4,12.9-57.6,0c-19.2-12.9-60.6-36.9-76.8-38.4c-28.7-2.6-28.1-4.4-76.8-19.2
	c0,0-17.9,42.2-27.5,55.1c-9.6,12.9-23.1,76.8-49.3,79.4c-30.6,3-48,16-57.6,19.2c-9.6,3.3-67.2,28.8-76.9,38.4
	c-9.6,9.6-57.6,19.2-57.6,19.2s-41.7-25.5-38.4-38.4s-5.9-61.6-2.6-67.9c3.3-6.4-15.7-31.3-15.7-34.5c0-3.3,12-70.5,18.3-89.7
	c6.3-19.2-6.3-48.1,0-57.6c6.3-9.6-38.4-38.4-38.4-38.4l-23.4,39.1c0,0-15-4-34.2-19.9c-19.2-15.9-48-37.6-57.6-57.6
	c-3.1-6.4,19.2-96,19.2-96s73.6-48.1,76.9-57.6c3.3-9.6,83.2-41.7,76.9-38.4c-6.3,3.3,25.5,4.4,31.9-1.9
	c6.3-6.4,40.5-11.7,40.5-11.7l25.1-34l32.2-25.5L715.6-638.7z"/>
<path class="st0" d="M1686.7-288.6c0,0-3.3,144.1,0,153.7c3.3,9.6,9.6,67.2,19.2,76.9c9.6,9.6,19.2,57.6,19.2,57.6
	s32.1,76.9,38.4,76.9c6.3,0,41.7,86.4,57.6,96c15.9,9.6,38.4,38.4,38.4,38.4l-76.9-57.6l-89.9-70.8l-44.6-25.3
	c0,0-46.2,21.9-70.2,52.1c-13.9,17.5-106,11.8-121.9,5.5c-16-6.4-137.7-32.1-134.5-38.4c3.3-6.4-25.8-31.3-38.4-57.6
	c-8.4-17.6-57.6-57.6-57.6-57.6s-63.9-6.3-57.6-19.2c6.3-12.9,0-38.4,0-38.4v-38.4c0-9.6,104.9-53.4,104.9-53.4s38.4-33.8,30.6-28.1
	c-9.7,7.2,39.6-19.1,45.9-28.7c6.4-9.6,69.2-23.7,69.2-23.7l56.7-19.7l10.7-40.5l-0.1-53.4c0,0-10.6-43.9-10.6-79.1
	c0-35.1-9.6-73.6,0-76.8c9.6-3.3,33.9-29.9,38.4-57.6c2.3-14.2,0-96,0-96s60.4,83,68.2,88.6c19.8,14.4,27.9,26.6,27.9,26.6
	s30.2-9.3,51.8-32.6c24.4-26.2,44.2-44.3,53.8-44.3c9.6,0,44.7-6.3,48,0c3.3,6.4,57.6,38.4,57.6,38.4s0,73.6-19.2,96
	c-19.2,22.5-54.4,83.2-57.6,96.1c-3.3,12.9-9.6,80.1-19.2,76.8C1715.5-349.5,1686.7-288.6,1686.7-288.6z"/>
<path class="st0" d="M581.9,18.8c9.6,0,67.5-28.8,86.8-38.4c19.2-9.6,70.5-41.7,76.9-38.4c6.4,3.3,22.5,12.9,38.4-19.2l38.4-76.9
	c9.6-19.2,6.3-41.7,19.2-38.4c12.8,3.3,95.5,18,105.1,27.6c9.6,9.6,48.3,34.3,61.9,35.5c34.8,3.1,56.2-4.4,86.5-9.5
	c7-1.2,38.6-13.7,45-10.4c6.3,3.3,28.1,14.4,28.1,14.4V-58c0,0-4.1,14,24.5,14c38.4,0,56.7,32,49.1,38.8c-7.9,7.2-9.7,20.8,3.2,43.3
	c12.9,22.5,40.2,69.7,33.8,79.3c-6.3,9.6,10.9,48.9,4.6,55.2c-6.3,6.3-76.2-9.1-91-2.9c-45.1,18.9-80.3-14.2-112.4,11.3
	c-32.1,25.5-62.3,20.4-84.8,10.8c-22.5-9.6-70.5-48-96-57.6c-25.5-9.6-88.9-38.3-96-38.4c-37.3-0.5-64,32.1-57.6,19.2l-25.9,15.9
	c11.7-1-60.6,5.7-89.4-15.9c-19.6-14.7-38.4-38.4-38.4-38.4S572.3,18.8,581.9,18.8z"/>
<path class="st1" d="M1725.1,249.3c0,0-73.6,80.1-96,96c-22.5,16-35.2,51.3-38.4,57.6c-3.3,6.3-9.6,41.7,0,57.6
	c9.6,15.9,6.3,137.7,0,134.5c-6.3-3.3-3.3,19.2-38.4,38.4c-35.1,19.2-131.2,38.4-134.5,38.4c-3.2,0-35.2,25.6-57.6,57.7
	c-22.5,32.1-38.5,57.6-38.5,57.6l-38.4,38.4l-57.6-38.4c0,0-23.7-33.9-19.2-38.4c8-8,25.5-9.6,38.4-19.2
	c12.9-9.6,28.8-51.3,19.2-96.1c-9.6-44.8-12.9-35.2,0-57.6c12.9-22.4,0-38.4,0-38.4s-44.7-16-38.4-19.2c6.3-3.3,22.5-25.6,38.4-38.4
	c16-12.8,28.8-51.3,38.4-57.6c9.6-6.3,35.1-19.2,57.6-38.4c22.4-19.2,64-32.1,57.6-57.6c-6.3-25.6-57.6-57.6-57.6-57.6h-38.5
	l-19.2,38.4l-19.2-96c-3.3-16,8.2-47.1,1.9-43.8c-6.3,3.3-10.5-82.4-10.5-82.4l3.5,15c0,0-1.2-25.4-26.8-51l-17.6-46.9l19-17.2
	l68.9,91.7c0,0,89.1,28.5,112.4,32.2c11.3,1.8,29.8,18.1,61.8,11.7c32.1-6.3,53,13.7,75.6-5.5c22.4-19.2,76.8-57.7,76.8-57.7
	l38.4,19.2c-6.3-3.3,92.8,80.1,96,76.8c3.3-3.3,76.9,57.6,76.9,57.6v19.2h-19.2c-19.2,0-73.6,28.8-76.8,19.2
	C1760.3,239.7,1725.1,249.3,1725.1,249.3z"/>
<path class="st1" d="M732.7,122.7c0,0,49.7-31.3,70.4-27.1c20.8,4.2,83.3,30.3,96,38.4c12.7,8.1,57.4,34.5,64.1,38.7
	c20.1,12.7,37.5,21,48.8,26.8c14.5,7.3,30.2-4.1,40.8-7.9c10.6-3.9,31.1-10,38.4-19.2c7.3-9.2,72.1,16.3,96.1,0
	c24-16.3,57.6,0,57.6,0h38.4c0,0-1.6,55.9,7.4,75.5c9,19.6-45.8,39.7-45.8,39.7s-11.9,15-19.2,19.2c-7.3,4.2-2.9,80.4-19.2,72.9
	c-16.3-7.5-13.3-29.3-44-44.2c-30.7-15-52-28.6-52-28.6s-78.4,6.3-76.9,0c1.6-6.4,1.8,20.6-7.2,28.6c-9.1,8.1-0.8,22.6-31.2,9.8
	c-30.9-13-28-4.2-76.8-19.2c-48.8-15-73.2-40.4-76.8-57.6c-3.6-17.3-13.3,3.5-38.4-19.2c-25.2-22.7-27.7-9.7-37.3-30.5
	c-8.1-17.6-39.5-46.3-39.5-46.3L732.7,122.7z"/>
<path class="st1" d="M822.3,364.6l19.2-57.6l-4.3-45.6c0,0,11.5,39.2,88.3,68.1c7.1,2.6,51.6,6.2,51.6,6.2l39.4,18.4l17.1-47.1
	c0,0,57.6,0,64.9,4.2c7.3,4.2,26.7-8.9,50.3,15l38.7,30.8l18.9,26.9c0,0-49.6,8.8-57.6,19.2c-8,10.3-34,45-19.2,57.6
	c14.8,12.7,13,63.6,19.2,76.9c6.1,13.2,38.4,38.4,38.4,38.4s-16.7,0.2-19.2,19.2c-2.5,19-4.2,53.8-19.2,57.6
	c-15,3.9-38.4-38.4-38.4-38.4s-15.9-41.1-19.2-57.6c-3.2-16.5-38.4-38.4-38.4-38.4s-30.9,2.7-38.4,0c-7.5-2.7-58.2,2.3-76.9,19.2
	c-18.6,16.9-68,24.8-76.8,38.4c-8.8,13.6-19.2,57.6-19.2,57.6l-38.4,19.2c0,0-37.6-6.5-38.4-38.4c-0.8-31.9-17.7-68.6-2.7-92.4
	c15-23.8,2.7-42.1,2.7-42.1S754.3,451.5,741,448c-13.2-3.4-29.4-26-29.4-26l53-38.3L822.3,364.6z"/>
<path class="st0" d="M15.3-538.3c0,0,40.2-48.8,38.4-57.6c-1.7-8.8,57.7-76.8,57.7-76.8s66.8,44.5,71.1,62.5
	c7.2,29.9,35.4-8.9,62.3,3.8c12.5,5.9,44,10.3,44,10.3l60.3-63.8c0,0,31-14.6,42.3-40.6c15.4-35.3,77-45.4,77-45.4
	s26.6-15.4,25.1,7.3c-1.8,27.1,13.5,65.6,13.5,65.6s8.9,43.8,27.1,57.7c18.3,13.8,13.1,44.9,19.2,57.6c6.1,12.7,15,23.8,0,19.2
	c-15-4.6-60.3,26.7-82.3,44.8c-36.3,29.8-56.2,36.6-71.4,51.3c-14,13.5-5.6,30.8-14.9,64.2c-9.2,33.4-2.8,24.9,5.7,46.6
	c8.5,21.7,54.5,48.7,54.5,48.7s36.6,21.2,31.6,13.4c-5-7.9,7.2-32.2,19.2-38.4c16-8.3,38.4,38.4,38.4,38.4v76.8
	c0,0-10.9,37.9-19.2,57.6c-8.3,19.8,13.7,6.2,16.6,47.4c3.3,48.6,3.3,73,3.3,73l41.8,33.3l5.5,24.2c0,0,12.9,27.2-14.7,36.4
	c-33.3,11.1-47.5,22.9-71.7-3c-24.2-25.9-17.3-25-38.4-19.2c-21.1,5.8-20.5-3.8-38.4,0c-17.9,3.9-38.7,9.8-38.7,9.8s0-7.3-43.6,21.8
	c-39.9,26.6-33,26.1-33,26.1s0.5,47.9-19.2,76.8c-24,35.2-14.3,16.9-12.3,57.3c1.9,39.2-2.9,83.1-11.7,107.1
	c-7.8,21.3-19.2,51.2-27.3,86.9c-7.1,31.2-7.8,24.3-61.7,44.8c-28.3,10.7-23.9,36.9-53.5,59.9c-26,20.2-55.9,33-72.4,45.5
	c-18.8,14.2-79.9-16.9-87.8-17.3c-7.9-0.4-23.2,14.2-38.4,19.2c-15.2,5-37.7-46.9-37.7-46.9s6-55.9,18.5-68.4
	c57.4-57.4,57.2-35.5,29.5-88.7c-9.6-18.4-71.1-28.9-56.7-52.5c14.4-23.7,29.6-43.7,8-70.1c-9.2-11.2-20.3-6.5-32.6-41.7
	c-12.3-35.2-13.9-34.6-44.3-54.3c-30.4-19.8-19.9-51.8-19.9-51.8s-0.8-14,4.5-26.6c6.5-15.3,16.1-5.7,44.5-20.2
	c20-10.2,61.4-46.5,61.4-46.5s23.9-35.9,19.9-51.3C-88-32.9-111-48.1-111-48.1s-9.9,4.4-12-25.2c-1.3-18.1,11.8-28.6,22.9-61.7
	c11.1-33,9.8-50.5,19.2-57.6c9.4-7.1,25.4-23.8,19.2-38.4c-6.1-14.6-19.2-38.4-19.2-38.4l-12.3-24.9l31.5-59.9L-4-403.8
	c0,0,11.6-36.3,13.7-55.6C11.2-473.6,15.3-538.3,15.3-538.3z"/>
<path class="st0" d="M378.3,513c0,0,2.3,56,21.3,82.1c19,26.1,47.1,19.4,57.6,19.2c10.6-0.2,20.8-103.5,19.2-115.2
	c-1.5-11.7,43.2-50.7,38.4-57.7c-4.8-6.9,11.5,34.4,19.2,38.4c7.7,4.1,60.8,13.3,60.8,13.3s11.1-20.4,16.1-32.5
	c5-12.1,57.6,0,57.6,0l89.6-3.5c0,0-56.8-27.9-46.2-38.3c14.3-14,43.8-32.9,58.2-36.9c74.5-21.3,48.9-25.4,64.2-53.1
	c3.7-6.6,2.8-67.5,2.8-67.5s-49.8-10.8-65.6-32.8c-27.3-38.1-45.3-56-45.3-56s11.4-52.8,2.4-47.3c-26.1,16.1-98.5-10.3-98.5-10.3
	l-40-43.2l-68.9,23.6l-25.6-18.8c0,0-10.4-26.5-38.4-19.2c-28.1,7.3-57.6,0-57.6,0l-76.9,38.4c0,0-16.7-0.6-19.2,19.2
	c-5.5,44.2-9.6,57.6-19.2,76.8c-3.6,7.2-21.1,27.9-19.2,38.4c1.9,10.6,0.4,30.5,7.7,38c7.3,7.5,32.6,36.6,32.6,36.6
	s-18.2,42.4-1.9,79.1c16.3,36.7,23.2,101.1,29.3,110.6C351.5,523.9,378.3,513,378.3,513z"/>
<path class="st1" d="M-4,710.4c0.4,27.4,7.6-113.3,16-113.5c8.5-0.2,29.6,0,60.8-21c6.6-4.4,57.6-38.4,57.6-38.4
	s31.7-54.6,57.7-57.7c25.9-3,33.3-3.6,38.4-19.2c5.2-15.6,19.2-50.3,19.2-57.6c0-7.3,19.2-57.6,19.2-57.6s7.1-79.2,14.4-71.7
	c7.3,7.5,26.3,29.3,20.9,46.4c-14.9,47.2,4.6,59.4,10.3,83.8c5.8,24.4,14,62.8,16.4,71.1c5.6,19.5,16.5,33,24.3,35.9
	c14.2,5.3,26-7.6,28.9,7.4c2.9,15,1.6,64.7,13.5,69.7c11.9,5,4,17.3,27.8,24.1c19.2,5.5,22.8,12.7,39.8-5c14.4-15.1,15-108,15-108
	l38.4-57.7c0,0,1,27.3,19.2,38.4c18.3,11.1,24.6,6.7,51,11.6c15.6,2.9,17.4-22.3,25.9-30.8c8.4-8.5,50.5,1.3,57.6,0
	c7.1-1.3,48.2,5,57.6,0c9.4-5,31.9-3.5,31.9-3.5s17.8,46.1,6.5,61.1c-11.3,15-9,27.6-8.2,39.3c0.8,11.7,9.1,63.7,9.1,63.7l16.2,22.6
	c0,0,21.4,8.8,40.6,85.7c3.1,12.5,38.4,57.6,38.4,57.6s-8.4,52.3-19.2,57.6c-10.8,5.4-27.5,32.7-38.4,38.4
	c-11,5.8-20,46.1-38.4,57.6c-18.5,11.5-19.6,16-38.4,38.4c-18.9,22.4-47.3,68.2-57.6,57.6c-10.4-10.6-62.6-51.9-57.6-57.6
	c5-5.8-29.2-66.9-19.2-76.8c10-10,17.9-87,19.2-96.1c1.3-9,19.2-57.6,19.2-57.6l38.4-19.2v-57.7c0,0,35.4-15.9-19.2-19.2
	c-54.6-3.3-115.3,0-115.3,0s-38.8,6.5-38.4,19.2c0.4,12.7-31.7,7.7-19.2,38.4c12.5,30.7-19.2,57.6-19.2,57.6l-76.9,19.2l-19.2,38.4
	c0,0,6.3,10-19.2,38.4c-25.6,28.4-58,37.1-57.7,76.9c0.4,39.8,34.6,64.6,19.2,76.9c-15.3,12.3-47.1-15.4-57.6-19.2
	c-10.6-3.8-93.2-10-115.3-19.2c-22.1-9.2-50.5,26.5-76.9,19.2c-26.3-7.3-60.4-13.4-76.9-19.2c-16.5-5.8-38.4-19.2-38.4-19.2
	s-21.7-19.8-19.2-38.4c2.5-18.7,0-38.4,0-38.4s-51.1,1-38.4,19.2c12.7,18.2-5.7,99.7-19.2,76.8c-14.9-25.2-24.3-55.2-24.3-55.2
	l9.3-85c0,0,23.1-5,72.6-32.7C-32,779.1-3.6,760.1-4,748.8C-4.4,737.4-4.1,703.2-4,710.4z"/>
<g id="マップのピンアイコン" transform="translate(-89.8 -19)">
	
		<image style="overflow:visible;opacity:0.3;" width="146" height="202" xlink:href="D0E09628.png"  transform="matrix(1 0 0 1 828.8 679)">
	</image>
	<g>
		<g>
			<g id="グループ_172_00000022543106191647198730000013838595637386624175_" transform="translate(101.8 27)">
				<g transform="matrix(1, 0, 0, 1, -12, -8)">
					<path id="パス_189-2_00000176044671939692897950000016928118868962757040_" class="st2" d="M812,676
						c-31.8,0-57.6,25.7-57.6,57.5c0,0,0,0,0,0c0,32.4,16.1,39.3,33.9,60.9C809.6,820.3,812,847,812,847s2.4-26.7,23.7-52.5
						c17.8-21.6,33.9-28.5,33.9-60.9C869.6,701.8,843.9,676,812,676C812.1,676,812.1,676,812,676z"/>
				</g>
			</g>
			<g id="レイヤー_1_00000027573479527654710240000015085300725706562230_" transform="translate(113.321 39.265)">
				<g id="グループ_181_00000183243481865238230140000013914737974599411368_">
					<g id="グループ_176_00000073689150656695660750000003488375443722051992_" transform="translate(0 22.993)">
						<path id="パス_190_00000095327082257461898650000011797274429157967278_" class="st3" d="M773.5,702.3
							c-0.1,0.3-0.4,0.4-0.7,0.4c-0.7,0-1.1-0.3-1.1-0.8c0-0.2,0-0.5,0.1-0.7c-0.2-0.5-0.7-1-1.8-1.6c-0.8-0.4-1.5-0.7-2.4-0.9
							c-1.7,2-14.6,12-16.1,13c-0.5,0.3-1,0.5-1.6,0.6c-0.3,0-0.6-0.1-0.8-0.3c-0.2-0.2-0.3-0.5-0.3-0.7c-0.1-0.5,0.3-1,0.8-1
							c0.1,0,0.2,0,0.2,0c0.8-0.4,13.2-9.9,14.7-11.4c1.1-1.1,2.2-2.4,3.2-3.6c0.6-0.8,1.1-1.6,1.5-2.4c0.5-0.8,0.8-1.7,0.9-2.6
							c0-0.3-0.4-0.4-1.2-0.4c-1.6,0-3.1,0.3-4.6,0.8c-0.3,0.3-0.7,0.5-1.2,0.6c-0.4,0-0.8-0.2-1.1-0.4c-0.3-0.3-0.5-0.7-0.5-1.1
							c0-0.5,0.3-0.8,0.9-0.9c2.2-0.5,4.4-0.9,6.6-1.1c2,0,3,0.9,3,2.6c0,1.8-1.1,4-3.2,6.7c3.1,1.2,4.7,2.6,4.7,4.4
							C773.9,701.7,773.7,702,773.5,702.3z"/>
						<path id="パス_191_00000128471216053116223940000013798013984975566254_" class="st3" d="M783.4,696.6
							c-0.2,0.2-0.4,0.3-0.7,0.3c-0.2,0-0.4-0.1-0.6-0.3c-1.5-1.3-3.2-2.3-5-3.1c-0.2,0-0.5-0.1-0.8-0.1c-0.4-0.1-0.7-0.3-0.9-0.5
							c-0.3-0.2-0.4-0.5-0.4-0.8c0-0.8,0.3-1.2,0.9-1.2c0.6,0.1,1.2,0.3,1.7,0.6c1.4,0.6,2.7,1.3,4,2.1c0.7,0.5,1.2,0.8,1.4,1
							c0.4,0.3,0.7,0.8,0.8,1.4C783.6,696.1,783.5,696.4,783.4,696.6z M782,710.1c-0.5,0-1-0.4-1.4-1.2c-1-1.1-2.3-2-3.6-2.6
							c-0.8-0.3-1.2-0.7-1.2-1.2c0-0.7,0.3-1.1,1-1.1c0.5,0,0.9,0.2,1.3,0.4c0.8,0.4,1.7,0.9,2.4,1.5c0.5,0.4,1,0.9,1.5,1.4
							c0.5,0.5,0.8,1.1,0.9,1.7C782.9,709.7,782.6,710.1,782,710.1L782,710.1z M782,702.8c-0.3,0-0.6-0.1-0.7-0.4
							c-1.5-1.2-3.1-2.2-4.7-3c-0.4-0.2-0.6-0.6-0.5-1c0-0.6,0.4-1,1.1-1c0.7,0.2,1.4,0.5,2.1,0.9c0.9,0.6,1.6,1,2.2,1.4
							c1.1,0.9,1.7,1.6,1.7,1.9C783,702.5,782.7,702.8,782,702.8z"/>
						<path id="パス_192_00000085226661058431544760000006491804765226966946_" class="st3" d="M801.7,706.1
							c-0.1,0.3-0.4,0.4-0.7,0.4c-0.7,0-1.1-0.3-1.1-0.8c0-0.2,0-0.5,0.1-0.7c-1.8-1.7-3.9-3.3-6-4.7c-0.8-0.4-1.5-0.7-2.4-0.9
							c-1.5,1.7-3.1,3.2-5,4.5c-0.5,0.3-1,0.5-1.6,0.6c-0.3,0-0.6-0.1-0.8-0.3c-0.2-0.2-0.3-0.5-0.3-0.7c-0.1-0.5,0.3-1,0.8-1
							c0.1,0,0.2,0,0.2,0c1.4-0.8,2.6-1.7,3.6-2.9c1.1-1.1,2.2-2.4,3.2-3.6c0.6-0.8,1.1-1.6,1.5-2.4c0.5-0.8,0.8-1.7,0.9-2.6
							c0-0.3-0.4-0.4-1.2-0.4c-1.6,0-3.1,0.3-4.6,0.8c-0.3,0.3-0.7,0.5-1.2,0.6c-0.4,0-0.8-0.2-1.1-0.4c-0.3-0.3-0.5-0.7-0.5-1.1
							c0-0.5,0.3-0.8,0.9-0.9c2.2-0.5,4.4-0.9,6.6-1.1c2,0,3,0.9,3,2.6c0,1.8-1.1,4-3.2,6.7c3.1,1.2,9,5.7,9,7.5
							C802.1,705.4,801.9,705.8,801.7,706.1z"/>
						<g id="グループ_173_00000116944244634792181260000015237867412464148610_" transform="translate(36.986 6.024)">
							<path id="パス_193_00000148659597873798739780000011052667864256572050_" class="st3" d="M775.7,696
								c-0.5,0.9-1.3,1.6-2.2,2.1c-0.1,0-0.2,0.1-0.3,0.1c-0.3,0-0.5-0.2-0.5-0.6c0-0.2,0.2-0.4,0.5-0.7c0.1-0.1,0.3-0.2,0.4-0.2
								c0.5-0.4,1-1,1.4-1.6c0.4-0.6,0.6-1.3,0.7-2c0-0.6-0.5-1-1.4-1.2c-0.4,1.2-1,2.4-1.8,3.4c-0.3,0.6-1,1-1.6,1
								c-0.4,0-0.8-0.2-1-0.6c-0.3-0.4-0.4-0.8-0.4-1.2c0-0.9,0.6-1.7,1.9-2.6c0.8-0.6,1.8-1,2.8-1.1c0.6,0,1.3,0.2,1.8,0.5
								c0.5,0.4,0.8,1,0.8,1.7C776.7,694.2,776.3,695.2,775.7,696z M771.5,693.2c-0.7,0.6-1,1-1,1.5c0,0.2,0.1,0.3,0.2,0.5
								c0.1,0.2,0.2,0.2,0.3,0.2c0.3,0,0.9-0.6,1.7-1.9c0.2-0.4,0.4-0.8,0.6-1.3C772.6,692.4,772,692.8,771.5,693.2L771.5,693.2z"/>
						</g>
						<g id="グループ_175_00000001664113463483587610000002507690723415622325_" transform="translate(28.626 10.417)">
							<g id="グループ_174_00000018226993491249452610000015216353567947243402_">
								<path id="パス_194_00000137114673077443987890000004572885384761132932_" class="st3" d="M770.9,709.9
									c-0.5,0.8-1.4,1.3-2.4,1.4c-1.1,0-1.9-0.9-2.4-2.8c-0.4-1.5-0.6-2.9-0.8-4.4c-0.1-0.8-0.3-1.8-0.4-2.8l-0.1-0.6
									c-0.1-0.7,0.2-1,0.9-1c0.6,0,0.9,0.6,1,1.9c0,0.1,0,0.5,0.2,1.3c0.1,0.8,0.1,1.3,0.2,1.6c0.1,1.1,0.3,2.3,0.6,3.4
									c0.3,1.1,0.6,1.6,0.9,1.6c0.2,0,0.5-0.2,0.9-0.6c0.3-0.4,0.6-0.6,0.9-0.6c0.5,0,0.8,0.3,0.9,0.9
									C771.2,709.4,771.1,709.7,770.9,709.9z M779.9,709.9c-0.4,0.1-0.9-0.2-0.9-0.7c0-0.1,0-0.2,0-0.3c0-0.3,0.1-0.6,0.1-0.9
									c0.1-0.7,0.2-1.3,0.2-2c0-1.1-0.3-2.2-1-3c-0.5-0.4-0.7-1-0.8-1.6c0-0.3,0.1-0.5,0.3-0.7c0.4-0.4,1-0.4,1.4,0
									c0.1,0.1,0.1,0.1,0.2,0.2c1.2,1.6,1.8,3.5,1.8,5.5C781.1,708.8,780.7,709.9,779.9,709.9L779.9,709.9z"/>
								<path id="パス_195_00000075858173234262891770000012021615933159594639_" class="st3" d="M799,710.8
									c-1.1,0.8-2.3,1.3-3.7,1.4c-0.7,0-1.4-0.5-1.6-1.2c-0.3-0.7-0.4-1.5-0.4-2.3c-0.1-0.8-0.4-1.2-0.8-1.2
									c-0.7,0.1-1.4,0.4-2,0.9c-0.1,0.2-0.3,0.4-0.6,0.6c-0.7,1-1.3,1.9-1.9,2.8c-0.2,0.5-0.4,0.7-0.8,0.7
									c-0.4,0.1-0.8-0.2-0.9-0.6c0-0.1,0-0.2,0-0.2c0-0.2,0.1-0.4,0.2-0.5c0.6-1,1.8-2.7,3.4-5.1c0.5-0.7,1.6-2.1,3.2-4.1
									c-0.9,0.5-2,0.9-3,1c-0.5,0-1-0.1-1.5-0.5c-0.5-0.4-0.7-0.9-0.7-1.5c0-0.8,0.3-1.2,0.9-1.2c0.3,0,0.6,0.3,0.7,0.7
									c0,0.3,0.3,0.4,0.6,0.4c0.7-0.1,1.5-0.2,2.2-0.5c0.7-0.3,1.4-0.6,2-1c0.3-0.2,0.7-0.3,1.2-0.4c0.6,0,1,0.4,0.9,1.1
									c0,0.2-0.1,0.5-0.3,0.6c-0.6,0.6-2,2.4-4,5.1c0.3-0.1,0.6-0.2,0.9-0.2c0.6,0,1.1,0.3,1.4,0.8c0.4,1,0.6,2,0.6,3.1
									c0,0.6,0.3,0.9,0.8,0.9c0.9-0.2,1.8-0.6,2.5-1.1c0.1-0.1,0.2-0.1,0.4-0.1c0.5,0,0.7,0.3,0.7,0.8
									C799.5,710.3,799.3,710.6,799,710.8z M795.4,697.1c-0.9,0-1.8-0.3-2.5-0.7c-0.1,0.1-0.3,0.2-0.5,0.2c-0.5,0-1-0.3-1.2-0.8
									c-0.4-0.4-0.5-1-0.5-1.6c0-0.4,0.3-0.8,0.7-0.8c0,0,0.1,0,0.1,0c0.4,0,0.8,0.3,1.4,0.9c0.8,0.5,1.7,0.9,2.6,1
									c0.5,0.1,0.8,0.5,0.7,0.9c0,0,0,0,0,0.1C796.2,696.8,795.9,697.1,795.4,697.1L795.4,697.1z"/>
							</g>
						</g>
					</g>
					<g id="グループ_180_00000093879916334667881390000004179242353451511723_" transform="translate(18.745)">
						<g id="グループ_178_00000142855847896821699070000014931770835303923593_">
							<g id="グループ_177_00000130626694785547426810000005419578508747714740_">
								<path id="パス_196_00000105390668172642344510000003775886724555095689_" class="st3" d="M773.2,702.2h4.9v-11.8l-1.7-1.6
									V683h-4.1v1.7l-2.8-2.5l-8,8.2v11.7h5.2l-0.9-1.5H763V691l6.5-6.8l4.2,3.8v-3.6h1.2v4.9l1.7,1.6v9.7h-2.4L773.2,702.2z"/>
								<path id="パス_197_00000142891888430170645730000018136010516079131791_" class="st3" d="M762,685.1
									c0.2-4.2,3.7-7.5,7.9-7.3c4,0.2,7.2,3.3,7.3,7.3c0,0.9-0.1,1.8-0.5,2.6l0.6,0.6c0.4-1,0.6-2.1,0.6-3.2
									c0.1-4.6-3.5-8.4-8.1-8.5c-4.6-0.1-8.4,3.5-8.5,8.1c0,0.2,0,0.3,0,0.5c0,1.1,0.2,2.2,0.6,3.2l0.6-0.6
									C762.2,686.9,762,686,762,685.1"/>
								<path id="パス_198_00000181776634378153900610000011632827878973671359_" class="st3" d="M760,685.1
									c0-5.3,4.3-9.6,9.6-9.6c5.3,0,9.6,4.3,9.6,9.6c0,1.4-0.3,2.8-0.9,4.1l0.5,0.5c2.6-5.1,0.6-11.3-4.5-13.9
									c-5.1-2.6-11.3-0.6-13.9,4.5c-0.7,1.4-1.1,3-1.1,4.7c0,1.6,0.4,3.2,1.1,4.7l0.5-0.5C760.3,687.9,760,686.5,760,685.1"/>
								<path id="パス_199_00000125590075446913181980000008404489735179057588_" class="st3" d="M769.6,678.9
									c-3.4,0-6.2,2.8-6.2,6.2c0,0.5,0.1,1,0.2,1.5l0.6-0.6c0-0.3-0.1-0.6-0.1-0.9c0-3,2.5-5.4,5.5-5.4c1.9,0,3.7,1,4.7,2.7h0.8
									C774.1,680.3,771.9,678.9,769.6,678.9"/>
							</g>
						</g>
						<g id="グループ_179_00000018951617008177894690000010504289972440693436_" transform="translate(4.728 10.489)">
							<path id="パス_200_00000053521244761788691960000002446058051336400028_" class="st3" d="M763.1,688.2
								c-0.1,1.1,0.8,2.1,1.9,2.2c0,0,0.1,0,0.1,0c0.9,0.1,1.7-0.6,1.8-1.5c0-0.1,0-0.2,0-0.2c0-1.3-0.8-1.6-2.1-2.1
								c-0.7-0.2-1.4-0.5-2-0.9c-1.1-1.2-1-3.1,0.2-4.3c0.5-0.5,1.2-0.8,2-0.8c1.4,0,2.7,0.9,3.1,3.1h-1.2c-0.1-1-0.9-1.7-1.9-1.7
								c-0.9,0-1.6,0.6-1.6,1.5c0,0,0,0.1,0,0.1c0,1,0.7,1.2,2.2,1.7c1.6,0.2,2.9,1.7,2.8,3.3c0.1,1.6-1.1,3.1-2.8,3.2
								c-0.1,0-0.2,0-0.3,0c-1.1,0-2.1-0.5-2.7-1.3c-0.4-0.7-0.6-1.4-0.6-2.2L763.1,688.2z"/>
						</g>
					</g>
				</g>
			</g>
		</g>
	</g>
</g>
<g id="マップのピンアイコン_00000026882478090377641470000018010906553845149353_" transform="translate(-89.8 -19)">
	
		<image style="overflow:visible;opacity:0.3;" width="146" height="202" xlink:href="D0E09629.png"  transform="matrix(1 0 0 1 813.8 471)">
	</image>
	<g>
		<g>
			<g id="グループ_172_00000028323424757895999200000001805096002165474740_" transform="translate(101.8 27)">
				<g transform="matrix(1, 0, 0, 1, -12, -8)">
					<path id="パス_189-2_00000090998540057043868660000017560663959750153110_" class="st2" d="M797.4,468
						c-31.8,0-57.6,25.7-57.6,57.5c0,0,0,0,0,0c0,32.4,16.1,39.3,33.9,60.9c21.3,25.8,23.7,52.5,23.7,52.5s2.4-26.7,23.7-52.5
						c17.8-21.6,33.9-28.5,33.9-60.9C854.9,493.8,829.2,468,797.4,468C797.4,468,797.4,468,797.4,468z"/>
				</g>
			</g>
			<g id="レイヤー_1_00000096751724183403502960000007174295487368127411_" transform="translate(113.321 39.265)">
				<g id="グループ_181_00000165195214064287772780000008306553781152128142_">
					<g id="グループ_176_00000112611921540521469040000006614366743666958977_" transform="translate(0 22.993)">
						<path id="パス_190_00000085950059072939463090000003112881442443265455_" class="st3" d="M758.9,494.3
							c-0.1,0.3-0.4,0.4-0.7,0.4c-0.7,0-1.1-0.3-1.1-0.8c0-0.2,0-0.5,0.1-0.7c-0.2-0.5-0.7-1-1.8-1.6c-0.8-0.4-1.5-0.7-2.4-0.9
							c-1.7,2-14.6,12-16.1,13c-0.5,0.3-1,0.5-1.6,0.6c-0.3,0-0.6-0.1-0.8-0.3c-0.2-0.2-0.3-0.5-0.3-0.7c-0.1-0.5,0.3-1,0.8-1
							c0.1,0,0.2,0,0.2,0c0.8-0.4,13.2-9.9,14.7-11.4c1.1-1.1,2.2-2.4,3.2-3.6c0.6-0.8,1.1-1.6,1.5-2.4c0.5-0.8,0.8-1.7,0.9-2.6
							c0-0.3-0.4-0.4-1.2-0.4c-1.6,0-3.1,0.3-4.6,0.8c-0.3,0.3-0.7,0.5-1.2,0.6c-0.4,0-0.8-0.2-1.1-0.4c-0.3-0.3-0.5-0.7-0.5-1.1
							c0-0.5,0.3-0.8,0.9-0.9c2.2-0.5,4.4-0.9,6.6-1.1c2,0,3,0.9,3,2.6c0,1.8-1.1,4-3.2,6.7c3.1,1.2,4.7,2.6,4.7,4.4
							C759.2,493.7,759.1,494,758.9,494.3z"/>
						<path id="パス_191_00000173846615122242204300000010569057202343724697_" class="st3" d="M768.7,488.6
							c-0.2,0.2-0.4,0.3-0.7,0.3c-0.2,0-0.4-0.1-0.6-0.3c-1.5-1.3-3.2-2.3-5-3.1c-0.2,0-0.5-0.1-0.8-0.1c-0.4-0.1-0.7-0.3-0.9-0.5
							c-0.3-0.2-0.4-0.5-0.4-0.8c0-0.8,0.3-1.2,0.9-1.2c0.6,0.1,1.2,0.3,1.7,0.6c1.4,0.6,2.7,1.3,4,2.1c0.7,0.5,1.2,0.8,1.4,1
							c0.4,0.3,0.7,0.8,0.8,1.4C769,488.1,768.9,488.4,768.7,488.6z M767.4,502.1c-0.5,0-1-0.4-1.4-1.2c-1-1.1-2.3-2-3.6-2.6
							c-0.8-0.3-1.2-0.7-1.2-1.2c0-0.7,0.3-1.1,1-1.1c0.5,0,0.9,0.2,1.3,0.4c0.8,0.4,1.7,0.9,2.4,1.5c0.5,0.4,1,0.9,1.5,1.4
							c0.5,0.5,0.8,1.1,0.9,1.7C768.2,501.7,767.9,502.1,767.4,502.1L767.4,502.1z M767.3,494.8c-0.3,0-0.6-0.1-0.7-0.4
							c-1.5-1.2-3.1-2.2-4.7-3c-0.4-0.2-0.6-0.6-0.5-1c0-0.6,0.4-1,1.1-1c0.7,0.2,1.4,0.5,2.1,0.9c0.9,0.6,1.6,1,2.2,1.4
							c1.1,0.9,1.7,1.6,1.7,1.9C768.3,494.5,768,494.8,767.3,494.8z"/>
						<path id="パス_192_00000050664135098686818910000015730002916129605290_" class="st3" d="M787.1,498.1
							c-0.1,0.3-0.4,0.4-0.7,0.4c-0.7,0-1.1-0.3-1.1-0.8c0-0.2,0-0.5,0.1-0.7c-1.8-1.7-3.9-3.3-6-4.7c-0.8-0.4-1.5-0.7-2.4-0.9
							c-1.5,1.7-3.1,3.2-5,4.5c-0.5,0.3-1,0.5-1.6,0.6c-0.3,0-0.6-0.1-0.8-0.3c-0.2-0.2-0.3-0.5-0.3-0.7c-0.1-0.5,0.3-1,0.8-1
							c0.1,0,0.2,0,0.2,0c1.4-0.8,2.6-1.7,3.6-2.9c1.1-1.1,2.2-2.4,3.2-3.6c0.6-0.8,1.1-1.6,1.5-2.4c0.5-0.8,0.8-1.7,0.9-2.6
							c0-0.3-0.4-0.4-1.2-0.4c-1.6,0-3.1,0.3-4.6,0.8c-0.3,0.3-0.7,0.5-1.2,0.6c-0.4,0-0.8-0.2-1.1-0.4c-0.3-0.3-0.5-0.7-0.5-1.1
							c0-0.5,0.3-0.8,0.9-0.9c2.2-0.5,4.4-0.9,6.6-1.1c2,0,3,0.9,3,2.6c0,1.8-1.1,4-3.2,6.7c3.1,1.2,9,5.7,9,7.5
							C787.4,497.4,787.3,497.8,787.1,498.1z"/>
						<g id="グループ_173_00000012465789215694432060000003787897657210285737_" transform="translate(36.986 6.024)">
							<path id="パス_193_00000132051035569042143440000013208254361593065101_" class="st3" d="M761.1,488
								c-0.5,0.9-1.3,1.6-2.2,2.1c-0.1,0-0.2,0.1-0.3,0.1c-0.3,0-0.5-0.2-0.5-0.6c0-0.2,0.2-0.4,0.5-0.7c0.1-0.1,0.3-0.2,0.4-0.2
								c0.5-0.4,1-1,1.4-1.6c0.4-0.6,0.6-1.3,0.7-2c0-0.6-0.5-1-1.4-1.2c-0.4,1.2-1,2.4-1.8,3.4c-0.3,0.6-1,1-1.6,1
								c-0.4,0-0.8-0.2-1-0.6c-0.3-0.4-0.4-0.8-0.4-1.2c0-0.9,0.6-1.7,1.9-2.6c0.8-0.6,1.8-1,2.8-1.1c0.6,0,1.3,0.2,1.8,0.5
								c0.5,0.4,0.8,1,0.8,1.7C762,486.2,761.7,487.2,761.1,488z M756.8,485.2c-0.7,0.6-1,1-1,1.5c0,0.2,0.1,0.3,0.2,0.5
								c0.1,0.2,0.2,0.2,0.3,0.2c0.3,0,0.9-0.6,1.7-1.9c0.2-0.4,0.4-0.8,0.6-1.3C757.9,484.4,757.3,484.8,756.8,485.2L756.8,485.2z"
								/>
						</g>
						<g id="グループ_175_00000041990745473515404610000013557434437807447172_" transform="translate(28.626 10.417)">
							<g id="グループ_174_00000138542168191775123990000012218853527783266215_">
								<path id="パス_194_00000005247636527962021330000015373741181190777474_" class="st3" d="M756.2,501.9
									c-0.5,0.8-1.4,1.3-2.4,1.4c-1.1,0-1.9-0.9-2.4-2.8c-0.4-1.5-0.6-2.9-0.8-4.4c-0.1-0.8-0.3-1.8-0.4-2.8l-0.1-0.6
									c-0.1-0.7,0.2-1,0.9-1c0.6,0,0.9,0.6,1,1.9c0,0.1,0,0.5,0.2,1.3c0.1,0.8,0.1,1.3,0.2,1.6c0.1,1.1,0.3,2.3,0.6,3.4
									c0.3,1.1,0.6,1.6,0.9,1.6c0.2,0,0.5-0.2,0.9-0.6c0.3-0.4,0.6-0.6,0.9-0.6c0.5,0,0.8,0.3,0.9,0.9
									C756.5,501.4,756.4,501.7,756.2,501.9z M765.2,501.9c-0.4,0.1-0.9-0.2-0.9-0.7c0-0.1,0-0.2,0-0.3c0-0.3,0.1-0.6,0.1-0.9
									c0.1-0.7,0.2-1.3,0.2-2c0-1.1-0.3-2.2-1-3c-0.5-0.4-0.7-1-0.8-1.6c0-0.3,0.1-0.5,0.3-0.7c0.4-0.4,1-0.4,1.4,0
									c0.1,0.1,0.1,0.1,0.2,0.2c1.2,1.6,1.8,3.5,1.8,5.5C766.4,500.8,766,501.9,765.2,501.9L765.2,501.9z"/>
								<path id="パス_195_00000083791445889328439120000016825155867952599683_" class="st3" d="M784.4,502.8
									c-1.1,0.8-2.3,1.3-3.7,1.4c-0.7,0-1.4-0.5-1.6-1.2c-0.3-0.7-0.4-1.5-0.4-2.3c-0.1-0.8-0.4-1.2-0.8-1.2
									c-0.7,0.1-1.4,0.4-2,0.9c-0.1,0.2-0.3,0.4-0.6,0.6c-0.7,1-1.3,1.9-1.9,2.8c-0.2,0.5-0.4,0.7-0.8,0.7
									c-0.4,0.1-0.8-0.2-0.9-0.6c0-0.1,0-0.2,0-0.2c0-0.2,0.1-0.4,0.2-0.5c0.6-1,1.8-2.7,3.4-5.1c0.5-0.7,1.6-2.1,3.2-4.1
									c-0.9,0.5-2,0.9-3,1c-0.5,0-1-0.1-1.5-0.5c-0.5-0.4-0.7-0.9-0.7-1.5c0-0.8,0.3-1.2,0.9-1.2c0.3,0,0.6,0.3,0.7,0.7
									c0,0.3,0.3,0.4,0.6,0.4c0.7-0.1,1.5-0.2,2.2-0.5c0.7-0.3,1.4-0.6,2-1c0.3-0.2,0.7-0.3,1.2-0.4c0.6,0,1,0.4,0.9,1.1
									c0,0.2-0.1,0.5-0.3,0.6c-0.6,0.6-2,2.4-4,5.1c0.3-0.1,0.6-0.2,0.9-0.2c0.6,0,1.1,0.3,1.4,0.8c0.4,1,0.6,2,0.6,3.1
									c0,0.6,0.3,0.9,0.8,0.9c0.9-0.2,1.8-0.6,2.5-1.1c0.1-0.1,0.2-0.1,0.4-0.1c0.5,0,0.7,0.3,0.7,0.8
									C784.8,502.3,784.6,502.6,784.4,502.8z M780.7,489.1c-0.9,0-1.8-0.3-2.5-0.7c-0.1,0.1-0.3,0.2-0.5,0.2c-0.5,0-1-0.3-1.2-0.8
									c-0.4-0.4-0.5-1-0.5-1.6c0-0.4,0.3-0.8,0.7-0.8c0,0,0.1,0,0.1,0c0.4,0,0.8,0.3,1.4,0.9c0.8,0.5,1.7,0.9,2.6,1
									c0.5,0.1,0.8,0.5,0.7,0.9c0,0,0,0,0,0.1C781.5,488.8,781.3,489.1,780.7,489.1L780.7,489.1z"/>
							</g>
						</g>
					</g>
					<g id="グループ_180_00000160191356354402627540000002939510582517503933_" transform="translate(18.745)">
						<g id="グループ_178_00000179610190097357944310000008898114327921520786_">
							<g id="グループ_177_00000096744961452813640800000005301832222636350631_">
								<path id="パス_196_00000177470783816186572400000011125057892741541544_" class="st3" d="M758.5,494.2h4.9v-11.8l-1.7-1.6
									V475h-4.1v1.7l-2.8-2.5l-8,8.2v11.7h5.2l-0.9-1.5h-2.8V483l6.5-6.8l4.2,3.8v-3.6h1.2v4.9l1.7,1.6v9.7h-2.4L758.5,494.2z"/>
								<path id="パス_197_00000129897598616210188890000011266840453641933493_" class="st3" d="M747.3,477.1
									c0.2-4.2,3.7-7.5,7.9-7.3c4,0.2,7.2,3.3,7.3,7.3c0,0.9-0.1,1.8-0.5,2.6l0.6,0.6c0.4-1,0.6-2.1,0.6-3.2
									c0.1-4.6-3.5-8.4-8.1-8.5c-4.6-0.1-8.4,3.5-8.5,8.1c0,0.2,0,0.3,0,0.5c0,1.1,0.2,2.2,0.6,3.2l0.6-0.6
									C747.5,478.9,747.3,478,747.3,477.1"/>
								<path id="パス_198_00000111156532601518788460000009257178690695250348_" class="st3" d="M745.4,477.1
									c0-5.3,4.3-9.6,9.6-9.6s9.6,4.3,9.6,9.6c0,1.4-0.3,2.8-0.9,4.1l0.5,0.5c2.6-5.1,0.6-11.3-4.5-13.9
									c-5.1-2.6-11.3-0.6-13.9,4.5c-0.7,1.4-1.1,3-1.1,4.7c0,1.6,0.4,3.2,1.1,4.7l0.5-0.5C745.7,479.9,745.4,478.5,745.4,477.1"/>
								<path id="パス_199_00000075136589945847967930000000914105492642901684_" class="st3" d="M754.9,470.9
									c-3.4,0-6.2,2.8-6.2,6.2c0,0.5,0.1,1,0.2,1.5l0.6-0.6c0-0.3-0.1-0.6-0.1-0.9c0-3,2.5-5.4,5.5-5.4c1.9,0,3.7,1,4.7,2.7h0.8
									C759.4,472.3,757.3,470.9,754.9,470.9"/>
							</g>
						</g>
						<g id="グループ_179_00000133504523686384797670000016336954795410283677_" transform="translate(4.728 10.489)">
							<path id="パス_200_00000108299604848519336490000006421328241557088185_" class="st3" d="M748.4,480.2
								c-0.1,1.1,0.8,2.1,1.9,2.2c0,0,0.1,0,0.1,0c0.9,0.1,1.7-0.6,1.8-1.5c0-0.1,0-0.2,0-0.2c0-1.3-0.8-1.6-2.1-2.1
								c-0.7-0.2-1.4-0.5-2-0.9c-1.1-1.2-1-3.1,0.2-4.3c0.5-0.5,1.2-0.8,2-0.8c1.4,0,2.7,0.9,3.1,3.1h-1.2c-0.1-1-0.9-1.7-1.9-1.7
								c-0.9,0-1.6,0.6-1.6,1.5c0,0,0,0.1,0,0.1c0,1,0.7,1.2,2.2,1.7c1.6,0.2,2.9,1.7,2.8,3.3c0.1,1.6-1.1,3.1-2.8,3.2
								c-0.1,0-0.2,0-0.3,0c-1.1,0-2.1-0.5-2.7-1.3c-0.4-0.7-0.6-1.4-0.6-2.2L748.4,480.2z"/>
						</g>
					</g>
				</g>
			</g>
		</g>
	</g>
</g>
<g id="マップのピンアイコン_00000139997487252894005240000004475641196434206130_" transform="translate(-89.8 -19)">
	
		<image style="overflow:visible;opacity:0.3;" width="146" height="202" xlink:href="D0E0962F.png"  transform="matrix(1 0 0 1 1288.3833 441.9896)">
	</image>
	<g>
		<g>
			<g id="グループ_172_00000175292307100491801410000015964682350458740864_" transform="translate(101.8 27)">
				<g transform="matrix(1, 0, 0, 1, -12, -8)">
					<path id="パス_189-2_00000075866553846650348160000000703790574417310389_" class="st2" d="M1271.3,438.6
						c-31.8,0-57.6,25.7-57.6,57.5c0,0,0,0,0,0c0,32.4,16.1,39.3,33.9,60.9c21.3,25.8,23.7,52.5,23.7,52.5s2.4-26.7,23.7-52.5
						c17.8-21.6,33.9-28.5,33.9-60.9C1328.9,464.4,1303.1,438.7,1271.3,438.6C1271.3,438.6,1271.3,438.6,1271.3,438.6z"/>
				</g>
			</g>
			<g id="レイヤー_1_00000173144134785904651320000007805387576721800099_" transform="translate(113.321 39.265)">
				<g id="グループ_181_00000162351520357744933420000010114707331653501834_">
					<g id="グループ_176_00000157268543889444426880000016290538919928045209_" transform="translate(0 22.993)">
						<path id="パス_190_00000099623535088506673140000008547679947175008908_" class="st3" d="M1232.8,465
							c-0.1,0.3-0.4,0.4-0.7,0.4c-0.7,0-1.1-0.3-1.1-0.8c0-0.2,0-0.5,0.1-0.7c-0.2-0.5-0.7-1-1.8-1.6c-0.8-0.4-1.5-0.7-2.4-0.9
							c-1.7,2-14.6,12-16.1,13c-0.5,0.3-1,0.5-1.6,0.6c-0.3,0-0.6-0.1-0.8-0.3c-0.2-0.2-0.3-0.5-0.3-0.7c-0.1-0.5,0.3-1,0.8-1
							c0.1,0,0.2,0,0.2,0c0.8-0.4,13.2-9.9,14.7-11.4c1.1-1.1,2.2-2.4,3.2-3.6c0.6-0.8,1.1-1.6,1.5-2.4c0.5-0.8,0.8-1.7,0.9-2.6
							c0-0.3-0.4-0.4-1.2-0.4c-1.6,0-3.1,0.3-4.6,0.8c-0.3,0.3-0.7,0.5-1.2,0.6c-0.4,0-0.8-0.2-1.1-0.4c-0.3-0.3-0.5-0.7-0.5-1.1
							c0-0.5,0.3-0.8,0.9-0.9c2.2-0.5,4.4-0.9,6.6-1.1c2,0,3,0.9,3,2.6c0,1.8-1.1,4-3.2,6.7c3.1,1.2,4.7,2.6,4.7,4.4
							C1233.1,464.3,1233,464.7,1232.8,465z"/>
						<path id="パス_191_00000000916864023369298070000005274931775295026855_" class="st3" d="M1242.6,459.3
							c-0.2,0.2-0.4,0.3-0.7,0.3c-0.2,0-0.4-0.1-0.6-0.3c-1.5-1.3-3.2-2.3-5-3.1c-0.2,0-0.5-0.1-0.8-0.1c-0.4-0.1-0.7-0.3-0.9-0.5
							c-0.3-0.2-0.4-0.5-0.4-0.8c0-0.8,0.3-1.2,0.9-1.2c0.6,0.1,1.2,0.3,1.7,0.6c1.4,0.6,2.7,1.3,4,2.1c0.7,0.5,1.2,0.8,1.4,1
							c0.4,0.3,0.7,0.8,0.8,1.4C1242.9,458.8,1242.8,459,1242.6,459.3z M1241.3,472.7c-0.5,0-1-0.4-1.4-1.2c-1-1.1-2.3-2-3.6-2.6
							c-0.8-0.3-1.2-0.7-1.2-1.2c0-0.7,0.3-1.1,1-1.1c0.5,0,0.9,0.2,1.3,0.4c0.8,0.4,1.7,0.9,2.4,1.5c0.5,0.4,1,0.9,1.5,1.4
							c0.5,0.5,0.8,1.1,0.9,1.7C1242.1,472.4,1241.8,472.7,1241.3,472.7L1241.3,472.7z M1241.2,465.5c-0.3,0-0.6-0.1-0.7-0.4
							c-1.5-1.2-3.1-2.2-4.7-3c-0.4-0.2-0.6-0.6-0.5-1c0-0.6,0.4-1,1.1-1c0.7,0.2,1.4,0.5,2.1,0.9c0.9,0.6,1.6,1,2.2,1.4
							c1.1,0.9,1.7,1.6,1.7,1.9C1242.2,465.1,1241.9,465.5,1241.2,465.5z"/>
						<path id="パス_192_00000158742165531907456200000010024089275111207298_" class="st3" d="M1261,468.7
							c-0.1,0.3-0.4,0.4-0.7,0.4c-0.7,0-1.1-0.3-1.1-0.8c0-0.2,0-0.5,0.1-0.7c-1.8-1.7-3.9-3.3-6-4.7c-0.8-0.4-1.5-0.7-2.4-0.9
							c-1.5,1.7-3.1,3.2-5,4.5c-0.5,0.3-1,0.5-1.6,0.6c-0.3,0-0.6-0.1-0.8-0.3c-0.2-0.2-0.3-0.5-0.3-0.7c-0.1-0.5,0.3-1,0.8-1
							c0.1,0,0.2,0,0.2,0c1.4-0.8,2.6-1.7,3.6-2.9c1.1-1.1,2.2-2.4,3.2-3.6c0.6-0.8,1.1-1.6,1.5-2.4c0.5-0.8,0.8-1.7,0.9-2.6
							c0-0.3-0.4-0.4-1.2-0.4c-1.6,0-3.1,0.3-4.6,0.8c-0.3,0.3-0.7,0.5-1.2,0.6c-0.4,0-0.8-0.2-1.1-0.4c-0.3-0.3-0.5-0.7-0.5-1.1
							c0-0.5,0.3-0.8,0.9-0.9c2.2-0.5,4.4-0.9,6.6-1.1c2,0,3,0.9,3,2.6c0,1.8-1.1,4-3.2,6.7c3.1,1.2,9,5.7,9,7.5
							C1261.3,468.1,1261.2,468.4,1261,468.7z"/>
						<g id="グループ_173_00000171677339100943337810000017967102932637606805_" transform="translate(36.986 6.024)">
							<path id="パス_193_00000115473559540720050600000003326557016909255356_" class="st3" d="M1235,458.7
								c-0.5,0.9-1.3,1.6-2.2,2.1c-0.1,0-0.2,0.1-0.3,0.1c-0.3,0-0.5-0.2-0.5-0.6c0-0.2,0.2-0.4,0.5-0.7c0.1-0.1,0.3-0.2,0.4-0.2
								c0.5-0.4,1-1,1.4-1.6c0.4-0.6,0.6-1.3,0.7-2c0-0.6-0.5-1-1.4-1.2c-0.4,1.2-1,2.4-1.8,3.4c-0.3,0.6-1,1-1.6,1
								c-0.4,0-0.8-0.2-1-0.6c-0.3-0.4-0.4-0.8-0.4-1.2c0-0.9,0.6-1.7,1.9-2.6c0.8-0.6,1.8-1,2.8-1.1c0.6,0,1.3,0.2,1.8,0.5
								c0.5,0.4,0.8,1,0.8,1.7C1235.9,456.8,1235.6,457.8,1235,458.7z M1230.8,455.8c-0.7,0.6-1,1-1,1.5c0,0.2,0.1,0.3,0.2,0.5
								c0.1,0.2,0.2,0.2,0.3,0.2c0.3,0,0.9-0.6,1.7-1.9c0.2-0.4,0.4-0.8,0.6-1.3C1231.8,455.1,1231.3,455.4,1230.8,455.8
								L1230.8,455.8z"/>
						</g>
						<g id="グループ_175_00000053535102449720542140000003621681635003196334_" transform="translate(28.626 10.417)">
							<g id="グループ_174_00000139294520223462400410000002025507712729602492_">
								<path id="パス_194_00000176024975071955992730000014296406222459225500_" class="st3" d="M1230.2,472.5
									c-0.5,0.8-1.4,1.3-2.4,1.4c-1.1,0-1.9-0.9-2.4-2.8c-0.4-1.5-0.6-2.9-0.8-4.4c-0.1-0.8-0.3-1.8-0.4-2.8l-0.1-0.6
									c-0.1-0.7,0.2-1,0.9-1c0.6,0,0.9,0.6,1,1.9c0,0.1,0,0.5,0.2,1.3c0.1,0.8,0.1,1.3,0.2,1.6c0.1,1.1,0.3,2.3,0.6,3.4
									c0.3,1.1,0.6,1.6,0.9,1.6c0.2,0,0.5-0.2,0.9-0.6c0.3-0.4,0.6-0.6,0.9-0.6c0.5,0,0.8,0.3,0.9,0.9
									C1230.4,472.1,1230.3,472.3,1230.2,472.5z M1239.2,472.5c-0.4,0.1-0.9-0.2-0.9-0.7c0-0.1,0-0.2,0-0.3c0-0.3,0.1-0.6,0.1-0.9
									c0.1-0.7,0.2-1.3,0.2-2c0-1.1-0.3-2.2-1-3c-0.5-0.4-0.7-1-0.8-1.6c0-0.3,0.1-0.5,0.3-0.7c0.4-0.4,1-0.4,1.4,0
									c0.1,0.1,0.1,0.1,0.2,0.2c1.2,1.6,1.8,3.5,1.8,5.5C1240.3,471.4,1239.9,472.5,1239.2,472.5L1239.2,472.5z"/>
								<path id="パス_195_00000167373643862558904510000010400578027125934734_" class="st3" d="M1258.3,473.4
									c-1.1,0.8-2.3,1.3-3.7,1.4c-0.7,0-1.4-0.5-1.6-1.2c-0.3-0.7-0.4-1.5-0.4-2.3c-0.1-0.8-0.4-1.2-0.8-1.2
									c-0.7,0.1-1.4,0.4-2,0.9c-0.1,0.2-0.3,0.4-0.6,0.6c-0.7,1-1.3,1.9-1.9,2.8c-0.2,0.5-0.4,0.7-0.8,0.7
									c-0.4,0.1-0.8-0.2-0.9-0.6c0-0.1,0-0.2,0-0.2c0-0.2,0.1-0.4,0.2-0.5c0.6-1,1.8-2.7,3.4-5.1c0.5-0.7,1.6-2.1,3.2-4.1
									c-0.9,0.5-2,0.9-3,1c-0.5,0-1-0.1-1.5-0.5c-0.5-0.4-0.7-0.9-0.7-1.5c0-0.8,0.3-1.2,0.9-1.2c0.3,0,0.6,0.3,0.7,0.7
									c0,0.3,0.3,0.4,0.6,0.4c0.7-0.1,1.5-0.2,2.2-0.5c0.7-0.3,1.4-0.6,2-1c0.3-0.2,0.7-0.3,1.2-0.4c0.6,0,1,0.4,0.9,1.1
									c0,0.2-0.1,0.5-0.3,0.6c-0.6,0.6-2,2.4-4,5.1c0.3-0.1,0.6-0.2,0.9-0.2c0.6,0,1.1,0.3,1.4,0.8c0.4,1,0.6,2,0.6,3.1
									c0,0.6,0.3,0.9,0.8,0.9c0.9-0.2,1.8-0.6,2.5-1.1c0.1-0.1,0.2-0.1,0.4-0.1c0.5,0,0.7,0.3,0.7,0.8
									C1258.7,473,1258.5,473.3,1258.3,473.4z M1254.6,459.7c-0.9,0-1.8-0.3-2.5-0.7c-0.1,0.1-0.3,0.2-0.5,0.2
									c-0.5,0-1-0.3-1.2-0.8c-0.4-0.4-0.5-1-0.5-1.6c0-0.4,0.3-0.8,0.7-0.8c0,0,0.1,0,0.1,0c0.4,0,0.8,0.3,1.4,0.9
									c0.8,0.5,1.7,0.9,2.6,1c0.5,0.1,0.8,0.5,0.7,0.9c0,0,0,0,0,0.1C1255.4,459.5,1255.2,459.7,1254.6,459.7L1254.6,459.7z"/>
							</g>
						</g>
					</g>
					<g id="グループ_180_00000169525472428660156670000009928622918264979886_" transform="translate(18.745)">
						<g id="グループ_178_00000102538208247216614000000002938599139230987397_">
							<g id="グループ_177_00000000180951184974011400000002679599082498866357_">
								<path id="パス_196_00000120557268538045881850000015963894775064850317_" class="st3" d="M1232.4,464.8h4.9v-11.8
									l-1.7-1.6v-5.8h-4.1v1.7l-2.8-2.5l-8,8.2v11.7h5.2l-0.9-1.5h-2.8v-9.7l6.5-6.8l4.2,3.8v-3.6h1.2v4.9l1.7,1.6v9.7h-2.4
									L1232.4,464.8z"/>
								<path id="パス_197_00000000181647579703329270000000038417522252020898_" class="st3" d="M1221.3,447.8
									c0.2-4.2,3.7-7.5,7.9-7.3c4,0.2,7.2,3.3,7.3,7.3c0,0.9-0.1,1.8-0.5,2.6l0.6,0.6c0.4-1,0.6-2.1,0.6-3.2
									c0.1-4.6-3.5-8.4-8.1-8.5c-4.6-0.1-8.4,3.5-8.5,8.1c0,0.2,0,0.3,0,0.5c0,1.1,0.2,2.2,0.6,3.2l0.6-0.6
									C1221.4,449.5,1221.3,448.7,1221.3,447.8"/>
								<path id="パス_198_00000176001613387864791700000009481183157620958873_" class="st3" d="M1219.3,447.8
									c0-5.3,4.3-9.6,9.6-9.6s9.6,4.3,9.6,9.6c0,1.4-0.3,2.8-0.9,4.1l0.5,0.5c2.6-5.1,0.6-11.3-4.5-13.9s-11.3-0.6-13.9,4.5
									c-0.7,1.4-1.1,3-1.1,4.7c0,1.6,0.4,3.2,1.1,4.7l0.5-0.5C1219.6,450.6,1219.3,449.2,1219.3,447.8"/>
								<path id="パス_199_00000131344296717352299860000000443452165749658756_" class="st3" d="M1228.8,441.6
									c-3.4,0-6.2,2.8-6.2,6.2c0,0.5,0.1,1,0.2,1.5l0.6-0.6c0-0.3-0.1-0.6-0.1-0.9c0-3,2.5-5.4,5.5-5.4c1.9,0,3.7,1,4.7,2.7h0.8
									C1233.3,443,1231.2,441.6,1228.8,441.6"/>
							</g>
						</g>
						<g id="グループ_179_00000139252503793486822730000015478312310643556287_" transform="translate(4.728 10.489)">
							<path id="パス_200_00000134949003496309784490000016688592560789754539_" class="st3" d="M1222.3,450.9
								c-0.1,1.1,0.8,2.1,1.9,2.2c0,0,0.1,0,0.1,0c0.9,0.1,1.7-0.6,1.8-1.5c0-0.1,0-0.2,0-0.2c0-1.3-0.8-1.6-2.1-2.1
								c-0.7-0.2-1.4-0.5-2-0.9c-1.1-1.2-1-3.1,0.2-4.3c0.5-0.5,1.2-0.8,2-0.8c1.4,0,2.7,0.9,3.1,3.1h-1.2c-0.1-1-0.9-1.7-1.9-1.7
								c-0.9,0-1.6,0.6-1.6,1.5c0,0,0,0.1,0,0.1c0,1,0.7,1.2,2.2,1.7c1.6,0.2,2.9,1.7,2.8,3.3c0.1,1.6-1.1,3.1-2.8,3.2
								c-0.1,0-0.2,0-0.3,0c-1.1,0-2.1-0.5-2.7-1.3c-0.4-0.7-0.6-1.4-0.6-2.2L1222.3,450.9z"/>
						</g>
					</g>
				</g>
			</g>
		</g>
	</g>
</g>
<g id="マップのピンアイコン_00000040543010902436618050000003252034754336950410_" transform="translate(-89.8 -19)">
	
		<image style="overflow:visible;opacity:0.3;" width="146" height="202" xlink:href="D0E0962A.png"  transform="matrix(1 0 0 1 1601.4667 218)">
	</image>
	<g>
		<g>
			<g id="グループ_172_00000169548330954073159320000014937995961174538942_" transform="translate(101.8 27)">
				<g transform="matrix(1, 0, 0, 1, -12, -8)">
					<path id="パス_189-2_00000131364211698164747070000013027831522874324154_" class="st2" d="M1584.3,214.3
						c-31.8,0-57.6,25.7-57.6,57.5c0,0,0,0,0,0c0,32.4,16.1,39.3,33.9,60.9c21.3,25.8,23.7,52.5,23.7,52.5s2.4-26.7,23.7-52.5
						c17.8-21.6,33.9-28.5,33.9-60.9C1641.9,240.1,1616.1,214.3,1584.3,214.3C1584.3,214.3,1584.3,214.3,1584.3,214.3z"/>
				</g>
			</g>
			<g id="レイヤー_1_00000179647108545437812540000009222800018587294116_" transform="translate(113.321 39.265)">
				<g id="グループ_181_00000168839388133259103870000018204232296762930071_">
					<g id="グループ_176_00000096026345534060449130000002482206647934708609_" transform="translate(0 22.993)">
						<path id="パス_190_00000102539403548053414140000007950074960676638618_" class="st3" d="M1545.8,240.7
							c-0.1,0.3-0.4,0.4-0.7,0.4c-0.7,0-1.1-0.3-1.1-0.8c0-0.2,0-0.5,0.1-0.7c-0.2-0.5-0.7-1-1.8-1.6c-0.8-0.4-1.5-0.7-2.4-0.9
							c-1.7,2-14.6,12-16.1,13c-0.5,0.3-1,0.5-1.6,0.6c-0.3,0-0.6-0.1-0.8-0.3c-0.2-0.2-0.3-0.5-0.3-0.7c-0.1-0.5,0.3-1,0.8-1
							c0.1,0,0.2,0,0.2,0c0.8-0.4,13.2-9.9,14.7-11.4c1.1-1.1,2.2-2.4,3.2-3.6c0.6-0.8,1.1-1.6,1.5-2.4c0.5-0.8,0.8-1.7,0.9-2.6
							c0-0.3-0.4-0.4-1.2-0.4c-1.6,0-3.1,0.3-4.6,0.8c-0.3,0.3-0.7,0.5-1.2,0.6c-0.4,0-0.8-0.2-1.1-0.4c-0.3-0.3-0.5-0.7-0.5-1.1
							c0-0.5,0.3-0.8,0.9-0.9c2.2-0.5,4.4-0.9,6.6-1.1c2,0,3,0.9,3,2.6c0,1.8-1.1,4-3.2,6.7c3.1,1.2,4.7,2.6,4.7,4.4
							C1546.1,240,1546,240.4,1545.8,240.7z"/>
						<path id="パス_191_00000034779653567409467440000009273757681888895907_" class="st3" d="M1555.6,234.9
							c-0.2,0.2-0.4,0.3-0.7,0.3c-0.2,0-0.4-0.1-0.6-0.3c-1.5-1.3-3.2-2.3-5-3.1c-0.2,0-0.5-0.1-0.8-0.1c-0.4-0.1-0.7-0.3-0.9-0.5
							c-0.3-0.2-0.4-0.5-0.4-0.8c0-0.8,0.3-1.2,0.9-1.2c0.6,0.1,1.2,0.3,1.7,0.6c1.4,0.6,2.7,1.3,4,2.1c0.7,0.5,1.2,0.8,1.4,1
							c0.4,0.3,0.7,0.8,0.8,1.4C1555.9,234.5,1555.8,234.7,1555.6,234.9z M1554.3,248.4c-0.5,0-1-0.4-1.4-1.2c-1-1.1-2.3-2-3.6-2.6
							c-0.8-0.3-1.2-0.7-1.2-1.2c0-0.7,0.3-1.1,1-1.1c0.5,0,0.9,0.2,1.3,0.4c0.8,0.4,1.7,0.9,2.4,1.5c0.5,0.4,1,0.9,1.5,1.4
							c0.5,0.5,0.8,1.1,0.9,1.7C1555.1,248,1554.8,248.4,1554.3,248.4L1554.3,248.4z M1554.2,241.2c-0.3,0-0.6-0.1-0.7-0.4
							c-1.5-1.2-3.1-2.2-4.7-3c-0.4-0.2-0.6-0.6-0.5-1c0-0.6,0.4-1,1.1-1c0.7,0.2,1.4,0.5,2.1,0.9c0.9,0.6,1.6,1,2.2,1.4
							c1.1,0.9,1.7,1.6,1.7,1.9C1555.2,240.8,1554.9,241.2,1554.2,241.2z"/>
						<path id="パス_192_00000009584737180558838700000010357259069625148606_" class="st3" d="M1574,244.4
							c-0.1,0.3-0.4,0.4-0.7,0.4c-0.7,0-1.1-0.3-1.1-0.8c0-0.2,0-0.5,0.1-0.7c-1.8-1.7-3.9-3.3-6-4.7c-0.8-0.4-1.5-0.7-2.4-0.9
							c-1.5,1.7-3.1,3.2-5,4.5c-0.5,0.3-1,0.5-1.6,0.6c-0.3,0-0.6-0.1-0.8-0.3c-0.2-0.2-0.3-0.5-0.3-0.7c-0.1-0.5,0.3-1,0.8-1
							c0.1,0,0.2,0,0.2,0c1.4-0.8,2.6-1.7,3.6-2.9c1.1-1.1,2.2-2.4,3.2-3.6c0.6-0.8,1.1-1.6,1.5-2.4c0.5-0.8,0.8-1.7,0.9-2.6
							c0-0.3-0.4-0.4-1.2-0.4c-1.6,0-3.1,0.3-4.6,0.8c-0.3,0.3-0.7,0.5-1.2,0.6c-0.4,0-0.8-0.2-1.1-0.4c-0.3-0.3-0.5-0.7-0.5-1.1
							c0-0.5,0.3-0.8,0.9-0.9c2.2-0.5,4.4-0.9,6.6-1.1c2,0,3,0.9,3,2.6c0,1.8-1.1,4-3.2,6.7c3.1,1.2,9,5.7,9,7.5
							C1574.3,243.7,1574.2,244.1,1574,244.4z"/>
						<g id="グループ_173_00000085957192731608139350000006298166668942965413_" transform="translate(36.986 6.024)">
							<path id="パス_193_00000158708259922732416440000004384859243908555952_" class="st3" d="M1548,234.4
								c-0.5,0.9-1.3,1.6-2.2,2.1c-0.1,0-0.2,0.1-0.3,0.1c-0.3,0-0.5-0.2-0.5-0.6c0-0.2,0.2-0.4,0.5-0.7c0.1-0.1,0.3-0.2,0.4-0.2
								c0.5-0.4,1-1,1.4-1.6c0.4-0.6,0.6-1.3,0.7-2c0-0.6-0.5-1-1.4-1.2c-0.4,1.2-1,2.4-1.8,3.4c-0.3,0.6-1,1-1.6,1
								c-0.4,0-0.8-0.2-1-0.6c-0.3-0.4-0.4-0.8-0.4-1.2c0-0.9,0.6-1.7,1.9-2.6c0.8-0.6,1.8-1,2.8-1.1c0.6,0,1.3,0.2,1.8,0.5
								c0.5,0.4,0.8,1,0.8,1.7C1548.9,232.5,1548.6,233.5,1548,234.4z M1543.8,231.5c-0.7,0.6-1,1-1,1.5c0,0.2,0.1,0.3,0.2,0.5
								c0.1,0.2,0.2,0.2,0.3,0.2c0.3,0,0.9-0.6,1.7-1.9c0.2-0.4,0.4-0.8,0.6-1.3C1544.8,230.8,1544.3,231.1,1543.8,231.5
								L1543.8,231.5z"/>
						</g>
						<g id="グループ_175_00000018228321570187956590000000625935125159506603_" transform="translate(28.626 10.417)">
							<g id="グループ_174_00000150075443741095519980000015092477770902028197_">
								<path id="パス_194_00000096053294483063808870000017580894522244794815_" class="st3" d="M1543.2,248.2
									c-0.5,0.8-1.4,1.3-2.4,1.4c-1.1,0-1.9-0.9-2.4-2.8c-0.4-1.5-0.6-2.9-0.8-4.4c-0.1-0.8-0.3-1.8-0.4-2.8l-0.1-0.6
									c-0.1-0.7,0.2-1,0.9-1c0.6,0,0.9,0.6,1,1.9c0,0.1,0,0.5,0.2,1.3c0.1,0.8,0.1,1.3,0.2,1.6c0.1,1.1,0.3,2.3,0.6,3.4
									c0.3,1.1,0.6,1.6,0.9,1.6c0.2,0,0.5-0.2,0.9-0.6c0.3-0.4,0.6-0.6,0.9-0.6c0.5,0,0.8,0.3,0.9,0.9
									C1543.4,247.7,1543.3,248,1543.2,248.2z M1552.2,248.2c-0.4,0.1-0.9-0.2-0.9-0.7c0-0.1,0-0.2,0-0.3c0-0.3,0.1-0.6,0.1-0.9
									c0.1-0.7,0.2-1.3,0.2-2c0-1.1-0.3-2.2-1-3c-0.5-0.4-0.7-1-0.8-1.6c0-0.3,0.1-0.5,0.3-0.7c0.4-0.4,1-0.4,1.4,0
									c0.1,0.1,0.1,0.1,0.2,0.2c1.2,1.6,1.8,3.5,1.8,5.5C1553.3,247.1,1552.9,248.2,1552.2,248.2L1552.2,248.2z"/>
								<path id="パス_195_00000101811784365101235270000006237728132774348205_" class="st3" d="M1571.3,249.1
									c-1.1,0.8-2.3,1.3-3.7,1.4c-0.7,0-1.4-0.5-1.6-1.2c-0.3-0.7-0.4-1.5-0.4-2.3c-0.1-0.8-0.4-1.2-0.8-1.2
									c-0.7,0.1-1.4,0.4-2,0.9c-0.1,0.2-0.3,0.4-0.6,0.6c-0.7,1-1.3,1.9-1.9,2.8c-0.2,0.5-0.4,0.7-0.8,0.7
									c-0.4,0.1-0.8-0.2-0.9-0.6c0-0.1,0-0.2,0-0.2c0-0.2,0.1-0.4,0.2-0.5c0.6-1,1.8-2.7,3.4-5.1c0.5-0.7,1.6-2.1,3.2-4.1
									c-0.9,0.5-2,0.9-3,1c-0.5,0-1-0.1-1.5-0.5c-0.5-0.4-0.7-0.9-0.7-1.5c0-0.8,0.3-1.2,0.9-1.2c0.3,0,0.6,0.3,0.7,0.7
									c0,0.3,0.3,0.4,0.6,0.4c0.7-0.1,1.5-0.2,2.2-0.5c0.7-0.3,1.4-0.6,2-1c0.3-0.2,0.7-0.3,1.2-0.4c0.6,0,1,0.4,0.9,1.1
									c0,0.2-0.1,0.5-0.3,0.6c-0.6,0.6-2,2.4-4,5.1c0.3-0.1,0.6-0.2,0.9-0.2c0.6,0,1.1,0.3,1.4,0.8c0.4,1,0.6,2,0.6,3.1
									c0,0.6,0.3,0.9,0.8,0.9c0.9-0.2,1.8-0.6,2.5-1.1c0.1-0.1,0.2-0.1,0.4-0.1c0.5,0,0.7,0.3,0.7,0.8
									C1571.7,248.6,1571.5,248.9,1571.3,249.1z M1567.6,235.4c-0.9,0-1.8-0.3-2.5-0.7c-0.1,0.1-0.3,0.2-0.5,0.2
									c-0.5,0-1-0.3-1.2-0.8c-0.4-0.4-0.5-1-0.5-1.6c0-0.4,0.3-0.8,0.7-0.8c0,0,0.1,0,0.1,0c0.4,0,0.8,0.3,1.4,0.9
									c0.8,0.5,1.7,0.9,2.6,1c0.5,0.1,0.8,0.5,0.7,0.9c0,0,0,0,0,0.1C1568.4,235.1,1568.2,235.4,1567.6,235.4L1567.6,235.4z"/>
							</g>
						</g>
					</g>
					<g id="グループ_180_00000074401828996144453460000016689257812410023329_" transform="translate(18.745)">
						<g id="グループ_178_00000146480405880064316250000017678061891557822084_">
							<g id="グループ_177_00000141425823298806888610000001268521193388872620_">
								<path id="パス_196_00000081648038181253122320000000452012514710296492_" class="st3" d="M1545.4,240.5h4.9v-11.8
									l-1.7-1.6v-5.8h-4.1v1.7l-2.8-2.5l-8,8.2v11.7h5.2l-0.9-1.5h-2.8v-9.7l6.5-6.8l4.2,3.8v-3.6h1.2v4.9l1.7,1.6v9.7h-2.4
									L1545.4,240.5z"/>
								<path id="パス_197_00000133489732832620448350000016056290151224215427_" class="st3" d="M1534.3,223.4
									c0.2-4.2,3.7-7.5,7.9-7.3c4,0.2,7.2,3.3,7.3,7.3c0,0.9-0.1,1.8-0.5,2.6l0.6,0.6c0.4-1,0.6-2.1,0.6-3.2
									c0.1-4.6-3.5-8.4-8.1-8.5c-4.6-0.1-8.4,3.5-8.5,8.1c0,0.2,0,0.3,0,0.5c0,1.1,0.2,2.2,0.6,3.2l0.6-0.6
									C1534.4,225.2,1534.3,224.3,1534.3,223.4"/>
								<path id="パス_198_00000117655104240621102500000012930656632262913444_" class="st3" d="M1532.3,223.4
									c0-5.3,4.3-9.6,9.6-9.6s9.6,4.3,9.6,9.6c0,1.4-0.3,2.8-0.9,4.1l0.5,0.5c2.6-5.1,0.6-11.3-4.5-13.9
									c-5.1-2.6-11.3-0.6-13.9,4.5c-0.7,1.4-1.1,3-1.1,4.7c0,1.6,0.4,3.2,1.1,4.7l0.5-0.5C1532.6,226.3,1532.3,224.9,1532.3,223.4
									"/>
								<path id="パス_199_00000111873235761966670640000010501272077395956886_" class="st3" d="M1541.8,217.3
									c-3.4,0-6.2,2.8-6.2,6.2c0,0.5,0.1,1,0.2,1.5l0.6-0.6c0-0.3-0.1-0.6-0.1-0.9c0-3,2.5-5.4,5.5-5.4c1.9,0,3.7,1,4.7,2.7h0.8
									C1546.3,218.6,1544.2,217.3,1541.8,217.3"/>
							</g>
						</g>
						<g id="グループ_179_00000176752691915130447870000015191733594834786991_" transform="translate(4.728 10.489)">
							<path id="パス_200_00000014626239280110277960000015421261631201796501_" class="st3" d="M1535.3,226.6
								c-0.1,1.1,0.8,2.1,1.9,2.2c0,0,0.1,0,0.1,0c0.9,0.1,1.7-0.6,1.8-1.5c0-0.1,0-0.2,0-0.2c0-1.3-0.8-1.6-2.1-2.1
								c-0.7-0.2-1.4-0.5-2-0.9c-1.1-1.2-1-3.1,0.2-4.3c0.5-0.5,1.2-0.8,2-0.8c1.4,0,2.7,0.9,3.1,3.1h-1.2c-0.1-1-0.9-1.7-1.9-1.7
								c-0.9,0-1.6,0.6-1.6,1.5c0,0,0,0.1,0,0.1c0,1,0.7,1.2,2.2,1.7c1.6,0.2,2.9,1.7,2.8,3.3c0.1,1.6-1.1,3.1-2.8,3.2
								c-0.1,0-0.2,0-0.3,0c-1.1,0-2.1-0.5-2.7-1.3c-0.4-0.7-0.6-1.4-0.6-2.2L1535.3,226.6z"/>
						</g>
					</g>
				</g>
			</g>
		</g>
	</g>
</g>
</svg>
