<?xml version="1.0" encoding="utf-8"?>
<!-- Generator: Adobe Illustrator 25.4.1, SVG Export Plug-In . SVG Version: 6.00 Build 0)  -->
<svg version="1.1" id="レイヤー_1" xmlns="http://www.w3.org/2000/svg" xmlns:xlink="http://www.w3.org/1999/xlink" x="0px"
	 y="0px" viewBox="0 0 112 100.6" style="enable-background:new 0 0 112 100.6;" xml:space="preserve">
<style type="text/css">
	.st0{fill:#FFFFFF;}
</style>
<g id="logo" transform="translate(984.915 -233.162)">
	<g id="グループ_9" transform="translate(-984.915 233.162)">
		<g id="グループ_4" transform="translate(0 45.364)">
			<path id="パス_1" class="st0" d="M36.9,23.9c-0.2,0.3-0.5,0.6-0.9,0.5c-0.9,0-1.4-0.3-1.4-1c0-0.3,0-0.6,0.1-1
				c-0.2-0.6-0.9-1.3-2.2-2c-1-0.5-1.9-0.9-3-1.2C27.3,21.8,11,34.6,9,35.9c-0.6,0.4-1.3,0.7-2,0.7c-0.4,0-0.7-0.1-1-0.4
				c-0.3-0.3-0.4-0.6-0.4-1c-0.1-0.6,0.3-1.2,1-1.3c0.1,0,0.2,0,0.3,0c1.1-0.5,16.7-12.5,18.7-14.5c1.4-1.5,2.8-3,4-4.6
				c0.7-1,1.4-2,1.9-3.1c0.6-1,1-2.2,1.2-3.4c0-0.4-0.5-0.5-1.5-0.5c-2,0-4,0.4-5.8,1.1c-0.4,0.4-0.9,0.7-1.5,0.7
				c-0.5,0-1-0.2-1.4-0.6C22.3,8.7,22,8.2,22,7.7c0-0.6,0.4-1,1.2-1.2c2.8-0.6,5.6-1.1,8.4-1.4c2.6,0,3.8,1.1,3.8,3.4
				c0,2.3-1.4,5.1-4.1,8.5c4,1.5,6,3.3,6,5.6C37.4,23,37.2,23.5,36.9,23.9z"/>
			<path id="パス_2" class="st0" d="M49.4,16.6c-0.2,0.2-0.6,0.4-0.9,0.4c-0.3,0-0.6-0.1-0.8-0.3c-1.9-1.7-4-3-6.4-4
				c-0.3,0-0.6-0.1-1-0.2c-0.4-0.1-0.9-0.3-1.2-0.6c-0.3-0.2-0.5-0.6-0.5-1.1c0-1,0.4-1.6,1.2-1.6c0.8,0.2,1.5,0.4,2.2,0.7
				c1.8,0.7,3.4,1.6,5,2.7c0.9,0.6,1.6,1.1,1.8,1.3c0.6,0.4,0.9,1,1,1.7C49.8,16.1,49.7,16.4,49.4,16.6z M47.7,33.7
				c-0.6,0-1.3-0.5-1.8-1.5c-1.3-1.4-2.9-2.5-4.6-3.3c-1-0.3-1.5-0.8-1.5-1.5c0-0.9,0.4-1.4,1.3-1.4c0.6,0.1,1.2,0.2,1.7,0.5
				c1.1,0.5,2.1,1.2,3.1,1.8c0.7,0.6,1.3,1.1,1.9,1.8c0.6,0.6,1,1.3,1.1,2.2C48.9,33.3,48.5,33.7,47.7,33.7L47.7,33.7z M47.7,24.5
				c-0.4,0-0.8-0.2-1-0.5c-1.9-1.5-3.9-2.8-6-3.8C40.2,20,40,19.6,40,18.9c0-0.8,0.5-1.2,1.4-1.2c0.9,0.2,1.8,0.6,2.6,1.1
				c1.2,0.7,2.1,1.3,2.8,1.8c1.4,1.1,2.2,2,2.2,2.5C49,24.1,48.5,24.5,47.7,24.5z"/>
			<path id="パス_3" class="st0" d="M72.8,28.7c-0.2,0.3-0.5,0.6-0.9,0.5c-0.9,0-1.4-0.3-1.4-1c0-0.3,0-0.6,0.1-1
				c-0.2-0.6-6.4-5.2-7.6-5.9c-1-0.5-1.9-0.9-3-1.2c-1.8,2.2-4,4.1-6.3,5.8c-0.6,0.4-1.3,0.7-2,0.7c-0.4,0-0.7-0.1-1-0.4
				c-0.3-0.3-0.4-0.6-0.4-1c-0.1-0.6,0.3-1.2,1-1.3c0.1,0,0.2,0,0.3,0c1.7-1,3.3-2.2,4.6-3.7c1.4-1.5,2.8-3,4-4.6
				c0.7-1,1.4-2,1.9-3.1c0.6-1,1-2.2,1.2-3.4c0-0.4-0.5-0.5-1.5-0.5c-2,0-4,0.3-5.8,1.1c-0.4,0.4-0.9,0.7-1.5,0.7
				c-0.5,0-1-0.2-1.4-0.6c-0.4-0.4-0.6-0.9-0.6-1.4c0-0.6,0.4-1,1.2-1.2c2.8-0.6,5.6-1.1,8.4-1.4c2.6,0,3.8,1.1,3.8,3.4
				c0,2.3-1.4,5.1-4.1,8.5c4,1.5,11.4,7.2,11.4,9.5C73.2,27.8,73.1,28.3,72.8,28.7z"/>
			<g id="グループ_1" transform="translate(73.054 11.913)">
				<path id="パス_4" class="st0" d="M13.7,11.6c-0.7,1.1-1.7,2.1-2.9,2.6c-0.1,0.1-0.2,0.1-0.4,0.1c-0.4,0-0.6-0.3-0.6-0.8
					c0-0.3,0.2-0.6,0.7-0.9c0.2-0.1,0.4-0.2,0.6-0.2c0.7-0.6,1.3-1.3,1.8-2c0.5-0.7,0.8-1.6,0.9-2.5c0-0.8-0.6-1.3-1.8-1.5
					c-0.5,1.6-1.3,3-2.3,4.4c-0.4,0.7-1.2,1.2-2.1,1.3c-0.5,0-1-0.3-1.3-0.8c-0.3-0.5-0.5-1-0.5-1.6c0-1.1,0.8-2.2,2.4-3.3
					c1-0.8,2.3-1.3,3.6-1.4c0.8,0,1.6,0.2,2.3,0.7c0.7,0.5,1,1.3,1,2.2C14.9,9.3,14.4,10.6,13.7,11.6z M8.3,8C7.4,8.7,7,9.3,7,9.9
					c0,0.2,0.1,0.4,0.2,0.6c0.1,0.2,0.3,0.3,0.4,0.3c0.4,0,1.2-0.8,2.1-2.5c0.3-0.5,0.5-1.1,0.7-1.6C9.6,7,8.9,7.5,8.3,8L8.3,8z"/>
			</g>
			<g id="グループ_3" transform="translate(56.538 20.621)">
				<g id="グループ_2">
					<path id="パス_5" class="st0" d="M13.4,26.1c-0.7,1-1.8,1.7-3,1.8c-1.4,0-2.4-1.2-3.1-3.5c-0.5-1.8-0.8-3.7-1-5.6
						c-0.1-1.1-0.3-2.3-0.6-3.5c-0.1-0.2-0.1-0.5-0.1-0.7c-0.1-0.9,0.3-1.3,1.2-1.3c0.7,0,1.2,0.8,1.3,2.4c0,0.1,0.1,0.7,0.2,1.7
						c0.1,1,0.2,1.7,0.2,2.1c0.1,1.4,0.4,2.9,0.7,4.3c0.4,1.4,0.8,2,1.1,2c0.3,0,0.7-0.3,1.1-0.8c0.2-0.4,0.6-0.7,1.1-0.8
						c0.7,0,1,0.4,1.1,1.2C13.8,25.5,13.7,25.8,13.4,26.1z M24.9,26.1c-0.6,0.1-1.1-0.3-1.2-0.9c0-0.1,0-0.2,0-0.3
						c0-0.4,0.1-0.8,0.2-1.2c0.2-0.8,0.3-1.7,0.3-2.6c0-1.4-0.4-2.8-1.3-3.8c-0.6-0.5-0.9-1.2-1-2c0-0.3,0.1-0.7,0.3-0.9
						c0.2-0.2,0.6-0.4,0.9-0.4c0.4,0,0.8,0.3,1.1,0.6c1.5,2,2.3,4.5,2.2,7C26.4,24.7,25.9,26.1,24.9,26.1z"/>
					<path id="パス_6" class="st0" d="M49.2,27.2c-1.4,1-3,1.6-4.7,1.8c-0.9,0-1.8-0.6-2-1.5c-0.3-0.9-0.5-1.9-0.5-2.9
						c-0.1-1-0.5-1.6-1-1.6c-0.9,0.1-1.8,0.5-2.5,1.2c-0.3,0.4-0.5,0.7-0.7,0.7c-0.9,1.3-1.7,2.4-2.5,3.6c-0.2,0.6-0.6,0.9-1.1,0.9
						c-0.5,0.1-1-0.3-1.1-0.8c0-0.1,0-0.2,0-0.3c0-0.2,0.1-0.5,0.3-0.7c0.8-1.3,2.2-3.5,4.4-6.5c0.7-1,2-2.7,4-5.2
						c-1.2,0.7-2.5,1.1-3.9,1.2c-0.7,0-1.3-0.2-1.9-0.6c-0.6-0.5-0.9-1.2-0.8-1.9c0-1,0.4-1.5,1.2-1.5c0.4,0,0.7,0.3,0.9,0.9
						c0.1,0.3,0.3,0.5,0.8,0.5c1-0.1,1.9-0.3,2.8-0.7c0.9-0.3,1.8-0.8,2.6-1.2c0.4-0.3,1-0.4,1.5-0.5c0.8,0,1.2,0.5,1.1,1.4
						c0,0.3-0.1,0.6-0.3,0.8c-0.8,0.8-2.5,3-5.1,6.5c0.3-0.2,0.7-0.2,1.1-0.2c0.7,0,1.4,0.4,1.8,1c0.5,1.2,0.7,2.6,0.8,3.9
						c0.1,0.7,0.4,1.1,1,1.1c1.1-0.2,2.2-0.7,3.2-1.4c0.1-0.1,0.3-0.1,0.5-0.1c0.7,0,1,0.3,0.9,1C49.7,26.7,49.5,27,49.2,27.2z
						 M44.6,9.8c-1.1,0-2.2-0.4-3.2-0.9c-0.2,0.1-0.4,0.2-0.6,0.2c-0.6-0.1-1.2-0.4-1.5-1c-0.4-0.6-0.7-1.3-0.7-2c0-0.5,0.4-1,0.9-1
						c0.1,0,0.1,0,0.2,0c0.5,0,1,0.4,1.8,1.1c1,0.7,2.2,1.2,3.4,1.3c0.6,0.1,1,0.6,0.9,1.2c0,0,0,0.1,0,0.1
						C45.6,9.5,45.2,9.8,44.6,9.8L44.6,9.8z"/>
				</g>
			</g>
		</g>
		<g id="グループ_8" transform="translate(37.008 0)">
			<g id="グループ_6">
				<g id="グループ_5">
					<path id="パス_7" class="st0" d="M23.3,39.8h6.1V24.9l-2.1-2v-7.3h-5.2v2.2l-3.5-3.2L8.5,24.9v14.9h6.6L13.9,38h-3.6V25.7
						l8.3-8.6L24,22v-4.6h1.5v6.3l2.1,2V38h-3.1L23.3,39.8z"/>
					<path id="パス_8" class="st0" d="M9.1,18.2c0-5.3,4.3-9.6,9.7-9.6c5.3,0,9.6,4.3,9.7,9.6c0,1.1-0.2,2.3-0.6,3.3l0.7,0.7
						c0.5-1.3,0.8-2.7,0.8-4.1c0-5.8-4.7-10.6-10.6-10.6c-5.8,0-10.6,4.7-10.6,10.6c0,1.4,0.3,2.8,0.8,4.1l0.7-0.7
						C9.3,20.4,9.1,19.3,9.1,18.2"/>
					<path id="パス_9" class="st0" d="M6.6,18.2C6.6,11.5,12,6,18.8,6c6.7,0,12.1,5.4,12.2,12.2c0,1.8-0.4,3.6-1.2,5.3l0.7,0.7
						c0.9-1.8,1.4-3.9,1.4-5.9C31.8,11,26,5.1,18.8,5.1C11.5,5.1,5.7,11,5.7,18.2c0,2.1,0.5,4.1,1.4,5.9l0.7-0.7
						C7,21.8,6.6,20,6.6,18.2"/>
					<path id="パス_10" class="st0" d="M18.8,10.4c-4.3,0-7.8,3.5-7.8,7.8c0,0.6,0.1,1.3,0.2,1.9l0.8-0.8
						c-0.1-0.4-0.1-0.7-0.1-1.1c0-3.8,3.1-6.9,6.9-6.9c2.4,0,4.7,1.3,5.9,3.4h1.1C24.4,12,21.7,10.4,18.8,10.4"/>
				</g>
			</g>
			<g id="グループ_7" transform="translate(9.29 20.701)">
				<path id="パス_11" class="st0" d="M7.2,14.8c0,0.8,0.3,1.5,0.9,2.1c0.5,0.4,1.1,0.7,1.8,0.6c1.2,0.1,2.2-0.7,2.3-1.9
					c0-0.1,0-0.2,0-0.3c0-1.6-1-2.1-2.6-2.6c-0.9-0.2-1.8-0.6-2.6-1.2c-0.7-0.7-1-1.6-1-2.6c-0.1-2,1.5-3.7,3.5-3.8
					c0.1,0,0.1,0,0.2,0c1.7,0,3.5,1.1,3.9,3.9H12c-0.2-1.2-1.2-2.2-2.4-2.2c-1.1-0.1-2,0.8-2.1,1.9c0,0,0,0.1,0,0.1
					c0,1.3,0.9,1.6,2.8,2.1c1.3,0.4,3.5,1.1,3.5,4.2c0.1,2.1-1.4,3.9-3.5,4c-0.1,0-0.3,0-0.4,0c-1.3,0.1-2.6-0.6-3.4-1.7
					c-0.5-0.8-0.8-1.8-0.8-2.8L7.2,14.8z"/>
			</g>
		</g>
	</g>
</g>
</svg>
