<?xml version="1.0" encoding="utf-8"?>
<!-- Generator: Adobe Illustrator 25.4.1, SVG Export Plug-In . SVG Version: 6.00 Build 0)  -->
<svg version="1.1" id="レイヤー_1" xmlns="http://www.w3.org/2000/svg" xmlns:xlink="http://www.w3.org/1999/xlink" x="0px"
	 y="0px" viewBox="0 0 112 100.6" style="enable-background:new 0 0 112 100.6;" xml:space="preserve">
<g id="chart_base" transform="translate(80.511 -7822.54)">
	<g id="グループ_214" transform="translate(53.186 7967.841)">
		<g id="グループ_182" transform="translate(98.314 7.488)">
			<g id="グループ_174" transform="translate(0 1.623)">
				<path id="パス_338" d="M-200.7-75.7l2,5.1l2-5.1h2l-3.4,8h-1.2l-3.4-8H-200.7z"/>
			</g>
			<g id="グループ_175" transform="translate(16.992 7.014)">
				<path id="パス_339" d="M-207.6-78.4h1.7v5.3h-1.7v-0.6c-0.3,0.5-1,0.9-1.6,0.8c-0.8,0-1.5-0.3-2-0.8c-0.5-0.5-0.7-1.3-0.7-2
					c0-0.8,0.3-1.5,0.8-2.1c0.5-0.5,1.1-0.7,1.9-0.7c0.6,0,1.3,0.3,1.7,0.8L-207.6-78.4z M-209.8-76.7c-0.2,0.2-0.4,0.6-0.4,1
					s0.1,0.7,0.4,1c0.3,0.3,0.6,0.4,1,0.4c0.3,0,0.6-0.1,0.9-0.4c0.2-0.3,0.4-0.6,0.4-1c0-0.4-0.1-0.7-0.4-1c-0.3-0.3-0.6-0.4-1-0.4
					C-209.2-77.2-209.5-77-209.8-76.7z"/>
			</g>
			<g id="グループ_176" transform="translate(33.245 7.093)">
				<path id="パス_340" d="M-220.8-78.5h1.7v0.6c0.4-0.5,1-0.8,1.6-0.8c0.5,0,1.1,0.2,1.5,0.5c0.4,0.4,0.6,1,0.5,1.5v3.4h-1.7
					v-2.7c0-0.4,0-0.8-0.3-1c-0.2-0.2-0.4-0.3-0.6-0.3c-0.3,0-0.5,0.1-0.7,0.3c-0.2,0.3-0.4,0.7-0.3,1v2.7h-1.7V-78.5z"/>
			</g>
			<g id="グループ_177" transform="translate(47.49 7.014)">
				<path id="パス_341" d="M-224.2-78.4h1.7v5c0,0.7,0,1.6-0.6,2.3c-0.6,0.5-1.4,0.8-2.2,0.8c-0.8,0-1.6-0.2-2.2-0.7
					c-0.4-0.4-0.7-0.9-0.8-1.4h1.9c0,0.2,0.2,0.4,0.4,0.5c0.3,0.1,0.5,0.1,0.8,0.1c0.3,0,0.6-0.1,0.9-0.3c0.3-0.3,0.4-0.7,0.4-1.1
					v-0.6c-0.3,0.5-1,0.9-1.6,0.8c-0.7,0-1.4-0.2-2-0.7c-0.5-0.6-0.8-1.3-0.8-2.1c0-0.8,0.3-1.5,0.8-2.1c0.5-0.5,1.2-0.8,2-0.7
					c0.6,0,1.2,0.3,1.6,0.8L-224.2-78.4z M-226.3-76.8c-0.3,0.3-0.4,0.6-0.4,1s0.1,0.7,0.4,1s0.6,0.4,1,0.4c0.4,0,0.7-0.1,0.9-0.4
					c0.3-0.2,0.5-0.6,0.5-1c0-0.4-0.1-0.7-0.4-1c-0.3-0.2-0.6-0.3-0.9-0.3C-225.7-77.1-226.1-77-226.3-76.8z"/>
			</g>
			<g id="グループ_178" transform="translate(63.63 7.408)">
				<path id="パス_342" d="M-235.6-78.8v2.9c0,0.3,0,0.6,0.3,0.9c0.2,0.2,0.5,0.3,0.7,0.3s0.5-0.1,0.7-0.3
					c0.2-0.2,0.3-0.5,0.3-0.9v-2.9h1.7v3.1c0,0.6-0.1,1.3-0.6,1.7c-0.6,0.5-1.4,0.7-2.1,0.7c-0.8,0-1.5-0.2-2.1-0.7
					c-0.4-0.4-0.6-1-0.6-1.6v-3.2H-235.6z"/>
			</g>
			<g id="グループ_179" transform="translate(77.908 7.014)">
				<path id="パス_343" d="M-240.8-78.4h1.7v5.3h-1.7v-0.6c-0.3,0.5-1,0.9-1.6,0.8c-0.8,0-1.5-0.3-2-0.8c-0.5-0.5-0.7-1.3-0.7-2
					c0-0.8,0.3-1.5,0.8-2.1c0.5-0.5,1.2-0.7,1.9-0.7c0.6,0,1.3,0.3,1.7,0.8L-240.8-78.4z M-242.9-76.7c-0.2,0.2-0.4,0.6-0.4,1
					s0.1,0.7,0.4,1c0.3,0.3,0.6,0.4,1,0.4c0.3,0,0.6-0.1,0.9-0.4c0.2-0.3,0.4-0.6,0.4-1c0-0.4-0.1-0.7-0.4-1c-0.3-0.3-0.6-0.4-1-0.4
					C-242.3-77.2-242.7-77-242.9-76.7z"/>
			</g>
			<g id="グループ_180" transform="translate(94.164 7.12)">
				<path id="パス_344" d="M-253.9-78.5h1.7v0.8c0.1-0.3,0.4-0.5,0.7-0.7c0.2-0.2,0.5-0.2,0.9-0.2c0.2,0,0.4,0,0.5,0.1l0,1.6
					c-0.3-0.1-0.5-0.2-0.8-0.2c-0.3,0-0.6,0.1-0.9,0.4c-0.3,0.4-0.5,0.9-0.4,1.4v2.2h-1.7V-78.5z"/>
			</g>
			<g id="グループ_181" transform="translate(103.703)">
				<path id="パス_345" d="M-253.1-66.1h-1.7v-0.6c-0.4,0.5-1,0.9-1.7,0.8c-0.7,0-1.4-0.2-1.8-0.7c-0.5-0.6-0.8-1.4-0.8-2.1
					c0-0.8,0.3-1.5,0.8-2.1c0.5-0.5,1.2-0.7,1.9-0.7c0.6,0,1.3,0.3,1.6,0.8v-4h1.7V-66.1L-253.1-66.1z M-256.9-69.8
					c-0.3,0.3-0.4,0.6-0.4,1s0.1,0.7,0.4,1c0.2,0.2,0.5,0.4,0.9,0.4s0.7-0.1,1-0.4c0.3-0.2,0.4-0.6,0.4-1s-0.1-0.7-0.4-1
					c-0.2-0.3-0.6-0.4-1-0.4C-256.3-70.1-256.7-70-256.9-69.8L-256.9-69.8z"/>
			</g>
		</g>
		<g id="グループ_188" transform="translate(131.144 31.662)">
			<g id="グループ_183" transform="translate(0 1.335)">
				<path id="パス_346" d="M-216.6-87c-0.1-0.2-0.3-0.4-0.5-0.6c-0.2-0.2-0.5-0.3-0.9-0.3c-0.7,0-1.3,0.5-1.4,1.1c0,0,0,0.1,0,0.1
					c0,0.3,0.1,0.5,0.3,0.7c0.2,0.2,0.5,0.4,0.8,0.5l0.8,0.3c0.5,0.2,0.9,0.4,1.2,0.7c0.4,0.4,0.6,0.9,0.6,1.5c0,1.3-1,2.4-2.3,2.5
					c0,0-0.1,0-0.2,0c-0.6,0-1.3-0.2-1.7-0.6c-0.4-0.4-0.6-0.9-0.7-1.4l0.8-0.3c0,0.4,0.2,0.7,0.5,1c0.3,0.3,0.7,0.5,1.1,0.5
					c0.9,0,1.5-0.5,1.6-1.4c0,0,0-0.1,0-0.2c0-0.4-0.1-0.7-0.4-0.9c-0.3-0.2-0.6-0.4-1-0.5l-0.7-0.3c-0.4-0.1-0.7-0.4-1-0.6
					c-0.4-0.4-0.6-0.8-0.5-1.3c0-1.2,1-2,2.2-2c0.5,0,0.9,0.1,1.3,0.4c0.3,0.2,0.6,0.5,0.8,0.9L-216.6-87z"/>
			</g>
			<g id="グループ_184" transform="translate(14.033 7.956)">
				<path id="パス_347" d="M-228.2-92.2h0.9v0.5c0.3-0.5,0.7-0.7,1.2-0.7c0.5,0,1.1,0.3,1.4,0.8c0.3-0.5,0.9-0.9,1.5-0.8
					c1.5,0,1.6,1.2,1.6,1.9v3.1h-0.9v-3c0-0.5-0.1-1.3-0.9-1.3c-1,0-1.1,1-1.1,1.5v2.7h-0.9v-2.9c0-0.4,0-1.4-0.9-1.4
					c-1,0-1.1,1-1.1,1.6v2.7h-0.8V-92.2L-228.2-92.2z"/>
			</g>
			<g id="グループ_185" transform="translate(31.574 2.774)">
				<path id="パス_348" d="M-237.1-89.5c0.3,0,0.6,0.3,0.6,0.6s-0.3,0.6-0.6,0.6c-0.3,0-0.6-0.2-0.6-0.6
					C-237.7-89.2-237.5-89.5-237.1-89.5z M-236.7-87v5h-0.9v-5H-236.7z"/>
			</g>
			<g id="グループ_186" transform="translate(36.314 4.291)">
				<path id="パス_349" d="M-238.9-87.7v4.1h-0.8v-4.1h-0.5v-0.8h0.5v-1.8h0.8v1.8h0.9v0.8L-238.9-87.7z"/>
			</g>
			<g id="グループ_187" transform="translate(43.016)">
				<path id="パス_350" d="M-244-88h0.9v4.3c0.3-0.5,0.9-0.7,1.4-0.7c0.5,0,1.1,0.2,1.4,0.7c0.2,0.4,0.3,0.9,0.3,1.3v3.1h-0.8
					v-3.1c0-0.3,0-0.6-0.2-0.9c-0.2-0.2-0.5-0.4-0.8-0.4c-0.3,0-0.6,0.1-0.9,0.4c-0.3,0.4-0.4,0.9-0.4,1.3v2.6h-0.9L-244-88L-244-88
					z"/>
			</g>
		</g>
		<path id="パス_351" d="M-80.8-93.4l-20.7-20.6v42.6h48.6v-65.5L-80.8-93.4z M-60.9-73.3l-1.5-1.5v-43.5l2-3.1v48.1H-60.9z
			 M-99.4-109.1l1.9,1.9h-2v-1.9H-99.4z M-96.8-106.5l1.9,1.9h-4.7v-1.9H-96.8z M-94.2-103.9l1.9,1.9h-7.3v-1.9H-94.2z M-91.6-101.3
			l1.9,1.9h-9.9v-1.9H-91.6z M-89-98.7l1.9,1.9h-12.5v-1.9H-89z M-86.4-96.1l1.9,1.9h-15.1v-1.9H-86.4z M-81.6-88.3v1.9H-83l1.2-1.9
			H-81.6z M-83.4-85.7h1.9v1.9h-2v-1.8L-83.4-85.7z M-78.9-83.8h-2v-1.9h2V-83.8z M-78.2-85.7h2v1.9h-2V-85.7z M-81.5-83.1v1.9h-2
			v-1.9H-81.5z M-80.8-83.1h2v1.9h-2V-83.1z M-78.2-83.1h2v1.9h-2V-83.1z M-75.6-83.1h2v1.9h-2V-83.1z M-73-82.7l1.5,1.5H-73
			L-73-82.7z M-75.6-83.8v-1.5l1.5,1.5H-75.6z M-78.2-86.4v-1.5l1.5,1.5H-78.2z M-78.9-86.4h-2v-1.9h2V-86.4z M-84.2-83.8h-0.5
			l0.5-0.7V-83.8z M-84.2-83.1v1.9h-2v-0.3l1-1.6H-84.2z M-86.1-80.5h2v1.9h-2V-80.5z M-86.8-78.6H-88l1.2-1.8V-78.6z M-83.5-80.5h2
			v1.9h-2V-80.5z M-80.8-80.5h2v1.9h-2V-80.5z M-78.2-80.5h2v1.9h-2V-80.5z M-75.6-80.5h2v1.9h-2V-80.5z M-73-80.5h2v1.9h-2V-80.5z
			 M-70.3-80.1l1.5,1.5h-1.5V-80.1z M-67.7-80.2v-30.1l2-3.1v35L-67.7-80.2z M-68.4-80.9l-2-2v-23.3l2-3.1V-80.9z M-71-83.5l-2-2
			v-16.6l2-3.1C-71-105.1-71-83.5-71-83.5z M-73.7-86.1l-2-2v-9.8l2-3.1V-86.1z M-76.3-88.8l-2-2v-3.1l2-3.1V-88.8z M-80.8-89v-0.7
			l0.4-0.5l1.2,1.2H-80.8z M-83.6-89h-15.9v-1.9h17.2L-83.6-89z M-84.1-88.3l-1.2,1.9h-14.3v-1.9H-84.1z M-85.8-85.7l-1.2,1.9h-12.6
			v-1.9H-85.8z M-87.4-83.1l-1.2,1.9h-10.9v-1.9H-87.4z M-89.1-80.5l-1.2,1.9h-9.2v-1.9H-89.1z M-99.6-77.9h8.8L-92-76h-7.6
			L-99.6-77.9z M-89.5-76.3v0.3h-0.2L-89.5-76.3z M-88.8-77.4l0.3-0.5h1.6v1.9h-2L-88.8-77.4L-88.8-77.4z M-86.1-77.9h2v1.9h-2
			V-77.9z M-83.5-77.9h2v1.9h-2V-77.9z M-80.8-77.9h2v1.9h-2V-77.9z M-78.3-77.9h2v1.9h-2V-77.9z M-75.6-77.9h2v1.9h-2V-77.9z
			 M-73-77.9h2v1.9h-2V-77.9z M-70.3-77.9h2v1.9h-2V-77.9z M-67.7-77.4l1.4,1.4h-1.4V-77.4z M-65.7-75.3v2h-2v-2H-65.7z M-65-77.5
			v-36.8l2-3.1v41.8L-65-77.5z M-78.9-92.7v1.3l-0.5-0.5L-78.9-92.7z M-82-91.6h-17.6v-1.9h15.8L-82-91.6L-82-91.6z M-99.6-73.3v-2
			h7.2l-1.3,2H-99.6z M-91.4-73.3l1.3-2h0.6v2H-91.4z M-88.8-73.3v-2h2v2H-88.8z M-86.1-73.3v-2h2v2H-86.1z M-83.5-73.3v-2h2v2
			H-83.5z M-80.8-73.3v-2h2v2H-80.8z M-78.3-73.3v-2h2v2H-78.3z M-75.6-73.3v-2h2v2H-75.6z M-73-73.3v-2h2v2H-73z M-70.3-75.3h2v2
			h-2V-75.3z M-65-73.3v-1.5l1.5,1.5H-65z M-59.8-73.3v-49.2l2-3.1v52.3H-59.8z M-54.8-73.3h-2.3v-53.3l2.3-3.6V-73.3z"/>
	</g>
</g>
</svg>
